<svg id="icon-content" width="100%" height="100%" viewBox="0 0 175 110" version="1.1" xmlns="http://www.w3.org/2000/svg" xmlns:xlink="http://www.w3.org/1999/xlink">

    <g id="Page-1" stroke="none" stroke-width="1" fill="none" fill-rule="evenodd">
        <g id="Group-2" transform="translate(55.000000, 43.000000)">
            <polygon id="Fill-148" fill="#0073AA" points="0.559516803 47.1133533 7.64844949 47.1133533 7.64844949 45.8015 0.559516803 45.8015"></polygon>
            <path d="M53.8269776,52.3664477 L53.8269776,4.41821002 C53.8269776,2.9725477 52.6187393,1.8015 51.1291798,1.8015 L11.2573146,1.8015 C9.76775514,1.8015 8.5595168,2.9725477 8.5595168,4.41821002 L8.5595168,52.3664477 L53.8269776,52.3664477" id="Fill-159" fill="#FFFFFF"></path>
            <path d="M8,10.1133533 L8,4.49781548 C8,3.00819763 9.01618254,1.8015 10.2686027,1.8015 L50.9988581,1.8015 C52.2512783,1.8015 53.2674608,3.00819763 53.2674608,4.49781548 L53.2674608,10.1133533 L8,10.1133533" id="Fill-160" fill="#E7F7FF"></path>
            <polygon id="Fill-161" fill="#0073AA" points="8.5595168 10.1133533 53.8269776 10.1133533 53.8269776 8.8015 8.5595168 8.8015"></polygon>
            <polygon id="Fill-165" fill="#E7F7FF" points="12 32.1133533 39.6977074 32.1133533 39.6977074 12.8015 12 12.8015"></polygon>
            <polygon id="Fill-165" fill="#E7F7FF" points="41 25.4801247 49.6977074 25.4801247 49.6977074 12.8015 41 12.8015"></polygon>
            <polygon id="Fill-166" fill="#D1E8F0" points="15.5595168 46.4801247 25.6356835 46.4801247 25.6356835 33.8015 15.5595168 33.8015"></polygon>
            <path d="M7.5595168,52.0232489 L7.5595168,4.07501124 C7.5595168,2.26990111 9.07342141,0.8015 10.9335674,0.8015 L50.8054326,0.8015 C52.6655786,0.8015 54.1794832,2.26990111 54.1794832,4.07501124 L54.1794832,31.0259048 L52.8269776,31.0259048 L52.8269776,4.07501124 C52.8269776,2.99316956 51.9198972,2.11335329 50.8054326,2.11335329 L10.9335674,2.11335329 C9.81910283,2.11335329 8.9120224,2.99316956 8.9120224,4.07501124 L8.9120224,52.0232489 L7.5595168,52.0232489 Z" id="Fill-168" fill="#0073AA"></path>
        </g>
        <path d="M61.309,91.654 C61.309,95.881 57.882,99.308 53.655,99.308 C49.427,99.308 46,95.881 46,91.654 C46,87.427 49.427,84 53.655,84 C57.882,84 61.309,87.427 61.309,91.654" id="Fill-406" fill="#FFFFFF"></path>
        <path d="M118.91,95.455 C118.91,100.125 115.124,103.91 110.455,103.91 C105.785,103.91 102,100.125 102,95.455 C102,90.786 105.785,87 110.455,87 C115.124,87 118.91,90.786 118.91,95.455" id="Fill-407" fill="#FFFFFF"></path>
        <path d="M139.063,95.531 C139.063,102.452 133.452,108.062 126.532,108.062 C119.611,108.062 114,102.452 114,95.531 C114,88.61 119.611,83 126.532,83 C133.452,83 139.063,88.61 139.063,95.531" id="Fill-408" fill="#FFFFFF"></path>
        <path d="M150.687,100.844 C150.687,105.175 147.175,108.687 142.843,108.687 C138.512,108.687 135,105.175 135,100.844 C135,96.512 138.512,93 142.843,93 C147.175,93 150.687,96.512 150.687,100.844" id="Fill-409" fill="#FFFFFF"></path>
        <path d="M168.34,95.67 C168.34,102.667 162.668,108.34 155.67,108.34 C148.673,108.34 143,102.667 143,95.67 C143,88.672 148.673,83 155.67,83 C162.668,83 168.34,88.672 168.34,95.67" id="Fill-410" fill="#FFFFFF"></path>
        <path d="M48.999,92 C48.999,97.522 44.522,101.999 39,101.999 C33.477,101.999 29,97.522 29,92 C29,86.477 33.477,82 39,82 C44.522,82 48.999,86.477 48.999,92" id="Fill-411" fill="#FFFFFF"></path>
        <path d="M63.999,99 C63.999,104.522 59.522,108.999 54,108.999 C48.477,108.999 44,104.522 44,99 C44,93.477 48.477,89 54,89 C59.522,89 63.999,93.477 63.999,99" id="Fill-412" fill="#FFFFFF"></path>
        <path d="M26.76,100.88 C26.76,105.785 22.784,109.76 17.88,109.76 C12.976,109.76 9,105.785 9,100.88 C9,95.976 12.976,92 17.88,92 C22.784,92 26.76,95.976 26.76,100.88" id="Fill-413" fill="#FFFFFF"></path>
        <path d="M38.02,100.01 C38.02,103.882 34.881,107.02 31.01,107.02 C27.138,107.02 24,103.882 24,100.01 C24,96.139 27.138,93 31.01,93 C34.881,93 38.02,96.139 38.02,100.01" id="Fill-415" fill="#FFFFFF"></path>
        <path d="M61.807,91.405 L60.307,91.405 C60.307,87.598 57.211,84.5 53.404,84.5 C49.597,84.5 46.5,87.598 46.5,91.405 L45,91.405 C45,86.77 48.77,83 53.404,83 C58.038,83 61.807,86.77 61.807,91.405" id="Fill-416" fill="#0073AA"></path>
        <path d="M120.41,96.205 L118.91,96.205 C118.91,91.957 115.454,88.5 111.205,88.5 C106.956,88.5 103.5,91.957 103.5,96.205 L102,96.205 C102,91.13 106.129,87 111.205,87 C116.281,87 120.41,91.13 120.41,96.205 L131.820312,88.6435547" id="Fill-417" fill="#0073AA"></path>
        <path d="M158.3625,49.5 L154.0885,49.5 C153.6735,49.5 153.3385,49.164 153.3385,48.75 C153.3385,48.336 153.6735,48 154.0885,48 L158.3625,48 C158.7765,48 159.1125,48.336 159.1125,48.75 C159.1125,49.164 158.7765,49.5 158.3625,49.5" id="Fill-418" fill="#0073AA"></path>
        <path d="M156.0885,51.774 C155.6745,51.774 155.3385,51.438 155.3385,51.024 L155.3385,46.75 C155.3385,46.336 155.6745,46 156.0885,46 C156.5025,46 156.8385,46.336 156.8385,46.75 L156.8385,51.024 C156.8385,51.438 156.5025,51.774 156.0885,51.774" id="Fill-419" fill="#0073AA"></path>
        <path d="M25.025,7.5 L20.75,7.5 C20.336,7.5 20,7.164 20,6.75 C20,6.336 20.336,6 20.75,6 L25.025,6 C25.439,6 25.775,6.336 25.775,6.75 C25.775,7.164 25.439,7.5 25.025,7.5" id="Fill-420" fill="#0073AA"></path>
        <path d="M22.75,9.774 C22.336,9.774 22,9.438 22,9.024 L22,4.75 C22,4.336 22.336,4 22.75,4 C23.164,4 23.5,4.336 23.5,4.75 L23.5,9.024 C23.5,9.438 23.164,9.774 22.75,9.774" id="Fill-421" fill="#0073AA"></path>
        <path d="M100.74975,4.52275 C100.55775,4.52275 100.36575,4.44875 100.21975,4.30275 C99.92675,4.00975 99.92675,3.53475 100.21975,3.24175 L103.24175,0.21975 C103.53475,-0.07325 104.00975,-0.07325 104.30275,0.21975 C104.59575,0.51275 104.59575,0.98675 104.30275,1.27975 L101.27975,4.30275 C101.13375,4.44875 100.94175,4.52275 100.74975,4.52275" id="Fill-424" fill="#0073AA"></path>
        <path d="M103.77175,4.52275 C103.57975,4.52275 103.38875,4.44875 103.24175,4.30275 L100.21975,1.27975 C99.92675,0.98675 99.92675,0.51275 100.21975,0.21975 C100.51275,-0.07325 100.98675,-0.07325 101.27975,0.21975 L104.30275,3.24175 C104.59575,3.53475 104.59575,4.00975 104.30275,4.30275 C104.15575,4.44875 103.96475,4.52275 103.77175,4.52275" id="Fill-425" fill="#0073AA"></path>
        <path d="M10.74975,61.52275 C10.55775,61.52275 10.36575,61.44875 10.21975,61.30275 C9.92675,61.00975 9.92675,60.53475 10.21975,60.24175 L13.24175,57.21975 C13.53475,56.92675 14.00975,56.92675 14.30275,57.21975 C14.59575,57.51275 14.59575,57.98675 14.30275,58.27975 L11.27975,61.30275 C11.13375,61.44875 10.94175,61.52275 10.74975,61.52275" id="Fill-424" fill="#0073AA"></path>
        <path d="M13.77175,61.52275 C13.57975,61.52275 13.38875,61.44875 13.24175,61.30275 L10.21975,58.27975 C9.92675,57.98675 9.92675,57.51275 10.21975,57.21975 C10.51275,56.92675 10.98675,56.92675 11.27975,57.21975 L14.30275,60.24175 C14.59575,60.53475 14.59575,61.00975 14.30275,61.30275 C14.15575,61.44875 13.96475,61.52275 13.77175,61.52275" id="Fill-425" fill="#0073AA"></path>
        <polygon id="Fill-426" fill="#0073AA" points="142 69.5 163.817 69.5 163.817 68 142 68"></polygon>
        <polygon id="Fill-428" fill="#0073AA" points="32 7.5 72.796 7.5 72.796 6 32 6"></polygon>
        <polygon id="Fill-429" fill="#0073AA" points="125 8.5 146.817 8.5 146.817 7 125 7"></polygon>
        <polygon id="Fill-430" fill="#0073AA" points="119 8.5 122.912 8.5 122.912 7 119 7"></polygon>
        <path d="M139.677,74.338 C139.677,75.077 139.078,75.676 138.339,75.676 C137.599,75.676 137,75.077 137,74.338 C137,73.599 137.599,73 138.339,73 C139.078,73 139.677,73.599 139.677,74.338" id="Fill-433" fill="#0073AA"></path>
        <path d="M14.677,18.338 C14.677,19.077 14.078,19.676 13.339,19.676 C12.6,19.676 12,19.077 12,18.338 C12,17.599 12.6,17 13.339,17 C14.078,17 14.677,17.599 14.677,18.338" id="Fill-434" fill="#0073AA"></path>
        <path d="M164.677,26.339 C164.677,27.078 164.078,27.677 163.339,27.677 C162.6,27.677 162,27.078 162,26.339 C162,25.599 162.6,25 163.339,25 C164.078,25 164.677,25.599 164.677,26.339" id="Fill-435" fill="#0073AA"></path>
        <path d="M64.696,28.848 C64.696,29.317 64.317,29.696 63.848,29.696 C63.38,29.696 63,29.317 63,28.848 C63,28.38 63.38,28 63.848,28 C64.317,28 64.696,28.38 64.696,28.848" id="Fill-438" fill="#0073AA"></path>
        <polygon id="Fill-478" fill="#8AC4E6" points="60 109.352 67.384 109.352 67.384 75 60 75"></polygon>
        <path d="M60.5,75.5 L60.5,107.257 C60.5,107.861 60.991,108.352 61.595,108.352 L66.384,108.352 L66.384,75.5 L60.5,75.5 Z M67.884,109.467529 L61.5241699,109.467529 C60.0931699,109.467529 59,108.688 59,107.257 L59,74 L67.884,74 L67.884,109.852 L67.884,109.467529 Z" id="Fill-479" fill="#0073AA"></path>
        <polyline id="Fill-480" fill="#E7F7FF" points="56 79.993 63.384 79.993 65.78 75 58.396 75 56 79.993"></polyline>
        <path d="M57.383,78.992 L63.104,78.992 L64.78,75.5 L59.059,75.5 L57.383,78.992 Z M64.047,80.492 L55,80.492 L58.115,74 L67.164,74 L64.047,80.492 L64.047,80.492 Z" id="Fill-481" fill="#0073AA"></path>
        <path d="M109.971,109.352 L68,109.352 L68,75 L112.58,75 L112.58,106.742 C112.58,108.183 111.412,109.352 109.971,109.352" id="Fill-482" fill="#0073AA"></path>
        <polygon id="Fill-483" fill="#0073AA" points="111 99.565 112.5 99.565 112.5 94 111 94"></polygon>
        <path d="M67,109.434082 L67,74 L113.081,74 L113.081,90.582 L111.581,90.582 L111.581,75.5 L68.5,75.5 L68.5,108.352 L109.398,108.352 C110.601,108.352 111.581,107.373 111.581,106.17 L111.581,103.128 L113.081,103.128 L113.081,106.17 C113.081,108.2 111.732416,109.434082 109.701416,109.434082 L67,109.434082 Z" id="Fill-484" fill="#0073AA"></path>
        <polyline id="Fill-485" fill="#E7F7FF" points="115.976 79.993 71.396 79.993 69 75 113.58 75 115.976 79.993"></polyline>
        <path d="M72.059,78.992 L114.976,78.992 L113.3,75.5 L70.383,75.5 L72.059,78.992 Z M117.361,80.492 L71.116,80.492 L68,74 L114.244,74 L117.361,80.492 L117.361,80.492 Z" id="Fill-486" fill="#0073AA"></path>
        <polyline id="Fill-513" fill="#D1E8F0" points="132.7655 45.13 119.8855 45.13 117.7395 48.848 126.3255 58.614 134.9125 48.848 132.7655 45.13"></polyline>
        <polyline id="Fill-514" fill="#9CC9E1" points="122.8485 48.848 120.7015 45.13 118.7395 48.875 122.8485 48.848"></polyline>
        <polyline id="Fill-515" fill="#9CC9E1" points="126.8965 48.733 124.8155 45.13 122.7395 48.727 126.8965 48.733"></polyline>
        <polyline id="Fill-516" fill="#9CC9E1" points="130.8655 48.721 128.6355 45.13 126.7395 48.748 130.8655 48.721"></polyline>
        <polyline id="Fill-517" fill="#9CC9E1" points="126.7395 49.13 126.7395 58.246 130.9345 49.13 126.7395 49.13"></polyline>
        <polyline id="Fill-518" fill="#62A6CF" points="118.7395 49.13 118.7395 49.221 126.9455 58.451 122.6585 49.13 118.7395 49.13"></polyline>
        <polyline id="Fill-519" fill="#62A6CF" points="134.9465 49.13 134.9465 49.221 126.7395 58.451 131.0275 49.13 134.9465 49.13"></polyline>
        <polyline id="Fill-520" fill="#0073AA" points="126.2435 59.5 116.7395 48.69 119.3715 44.13 129.2805 44.13 129.2805 45.63 120.2375 45.63 118.5765 48.507 126.2435 57.229 133.9115 48.507 132.2515 45.63 131.4435 45.63 131.4435 44.13 133.1165 44.13 135.7495 48.69 126.2435 59.5"></polyline>
        <polygon id="Fill-521" fill="#0073AA" points="129.7395 45.63 131.1395 45.63 131.1395 44.13 129.7395 44.13"></polygon>
        <polygon id="Fill-522" fill="#0073AA" points="117.7395 49.63 134.9125 49.63 134.9125 48.13 117.7395 48.13"></polygon>
        <polyline id="Fill-523" fill="#0073AA" points="126.0315 58.5 121.7395 48.734 123.1125 48.13 127.4045 57.897 126.0315 58.5"></polyline>
        <polyline id="Fill-524" fill="#0073AA" points="127.1125 58.5 125.7395 57.896 130.0315 48.13 131.4045 48.734 127.1125 58.5"></polyline>
        <polygon id="Fill-525" fill="#0073AA" points="125.7395 58.673 127.2395 58.673 127.2395 49.13 125.7395 49.13"></polygon>
        <polyline id="Fill-526" fill="#0073AA" points="121.8865 49.598 119.7395 45.88 121.0375 45.13 123.1855 48.848 121.8865 49.598"></polyline>
        <polyline id="Fill-527" fill="#0073AA" points="125.8865 49.598 123.7395 45.88 125.0375 45.13 127.1855 48.848 125.8865 49.598"></polyline>
        <polyline id="Fill-528" fill="#0073AA" points="129.8875 49.598 127.7395 45.88 129.0385 45.13 131.1865 48.848 129.8875 49.598"></polyline>
        <polyline id="Fill-529" fill="#0073AA" points="132.0385 49.598 130.7395 48.848 132.8865 45.13 134.1855 45.88 132.0385 49.598"></polyline>
        <polyline id="Fill-530" fill="#0073AA" points="127.0385 49.598 125.7395 48.848 127.8865 45.13 129.1855 45.88 127.0385 49.598"></polyline>
        <polyline id="Fill-531" fill="#0073AA" points="123.0385 49.598 121.7395 48.848 123.8875 45.13 125.1855 45.88 123.0385 49.598"></polyline>
        <path d="M88.6770083,14.236 C87.2610083,14.236 86.1140083,13.09 86.1140083,11.672 C86.1140083,10.257 87.2610083,9.114 88.6770083,9.114 C90.0920083,9.114 91.2380083,10.257 91.2380083,11.672 C91.2380083,13.09 90.0920083,14.236 88.6770083,14.236 Z M95.5460083,10.412 L94.2980083,10.407 C94.1500083,9.758 93.8950083,9.151 93.5510083,8.607 L94.4340083,7.723 C94.7510083,7.409 94.7530083,6.897 94.4370083,6.582 L93.7760083,5.921 C93.4610083,5.606 92.9500083,5.604 92.6350083,5.918 L91.7500083,6.802 C91.2060083,6.458 90.5990083,6.203 89.9530083,6.056 L89.9530083,4.807 C89.9530083,4.362 89.5900083,4 89.1430083,4 L88.2100083,4 C87.7630083,4 87.4020083,4.362 87.4020083,4.807 L87.4020083,6.056 C86.7640083,6.199 86.1680083,6.451 85.6300083,6.785 L84.7510083,5.898 C84.4370083,5.583 83.9250083,5.576 83.6090083,5.893 L82.9440083,6.55 C82.6290083,6.862 82.6260083,7.375 82.9390083,7.691 L83.8160083,8.58 C83.4700083,9.121 83.2120083,9.728 83.0630083,10.375 L81.8150083,10.37 C81.3680083,10.366 81.0060083,10.728 81.0060083,11.176 L81.0000083,12.11 C80.9980083,12.554 81.3580083,12.918 81.8040083,12.921 L83.0500083,12.925 C83.1970083,13.576 83.4490083,14.181 83.7930083,14.724 L82.9040083,15.609 C82.5900083,15.921 82.5880083,16.432 82.9030083,16.749 L83.5590083,17.411 C83.8750083,17.73 84.3870083,17.73 84.7010083,17.416 L85.5880083,16.537 C86.1320083,16.881 86.7360083,17.141 87.3870083,17.29 L87.3820083,18.535 C87.3800083,18.981 87.7410083,19.346 88.1870083,19.346 L89.1210083,19.349 C89.5670083,19.349 89.9300083,18.991 89.9300083,18.546 L89.9340083,17.297 C90.5830083,17.151 91.1900083,16.895 91.7360083,16.553 L92.6170083,17.44 C92.9310083,17.755 93.4440083,17.755 93.7620083,17.44 L94.4210083,16.781 C94.7370083,16.468 94.7390083,15.955 94.4210083,15.642 L93.5450083,14.755 C93.8890083,14.21 94.1460083,13.606 94.2930083,12.955 L95.5400083,12.959 C95.9870083,12.959 96.3470083,12.598 96.3490083,12.153 L96.3490083,11.216 C96.3490083,10.773 95.9900083,10.412 95.5460083,10.412 L95.5460083,10.412 Z" id="Fill-532" fill="#FFFFFF"></path>
        <path d="M88.4280386,9.614 C87.4270386,9.614 86.6130386,10.425 86.6130386,11.422 C86.6130386,12.422 87.4270386,13.236 88.4280386,13.236 C89.4260386,13.236 90.2370386,12.422 90.2370386,11.422 C90.2370386,10.425 89.4260386,9.614 88.4280386,9.614 Z M88.4280386,14.736 C86.6010386,14.736 85.1130386,13.249 85.1130386,11.422 C85.1130386,9.598 86.6010386,8.114 88.4280386,8.114 C90.2530386,8.114 91.7370386,9.598 91.7370386,11.422 C91.7370386,13.249 90.2530386,14.736 88.4280386,14.736 Z M85.2350386,15.333 L85.7390386,15.653 C86.2280386,15.962 86.7540386,16.183 87.3040386,16.309 L87.8890386,16.442 L87.8820386,18.288 L88.8740386,18.349 L88.9360386,16.446 L89.5200386,16.315 C90.0730386,16.191 90.6010386,15.973 91.0870386,15.668 L91.5950386,15.349 L92.8990386,16.662 L93.6400386,16.002 L92.3430386,14.609 L92.6600386,14.106 C92.9680386,13.618 93.1870386,13.091 93.3120386,12.539 L93.4440386,11.953 L95.2920386,11.959 L95.3490386,10.966 L95.3470386,10.966 L95.2930386,10.912 L93.4480386,10.905 L93.3170386,10.323 C93.1910386,9.767 92.9720386,9.24 92.6670386,8.758 L92.3470386,8.251 L93.6520386,6.943 L92.9950386,6.201 L91.6040386,7.507 L91.0970386,7.186 C90.6190386,6.882 90.0940386,6.664 89.5360386,6.537 L88.9520386,6.404 L88.9520386,4.557 L87.9600386,4.5 L87.9020386,6.406 L87.3170386,6.538 C86.7780386,6.659 86.2590386,6.872 85.7740386,7.172 L85.2660386,7.486 L83.9680386,6.176 L83.2220386,6.833 L84.5210386,8.229 L84.1980386,8.733 C83.8920386,9.213 83.6720386,9.738 83.5430386,10.294 L83.4080386,10.877 L81.5630386,10.87 L81.5000386,11.865 L83.4010386,11.927 L83.5310386,12.511 C83.6580386,13.072 83.8750386,13.597 84.1760386,14.073 L84.4970386,14.581 L83.1840386,15.89 L83.8410386,16.633 L85.2350386,15.333 Z M88.8710386,19.849 L87.9340386,19.845 C87.5210386,19.845 87.1300386,19.683 86.8360386,19.387 C86.5410386,19.091 86.3800386,18.699 86.3820386,18.282 L86.3850386,17.607 C86.0690386,17.502 85.7600386,17.374 85.4610386,17.22 L84.9800386,17.698 C84.6890386,17.989 84.2980386,18.151 83.8830386,18.151 L83.8800386,18.151 C83.4620386,18.15 83.0700386,17.986 82.7760386,17.688 L82.1200386,17.026 C81.5160386,16.417 81.5180386,15.431 82.1260386,14.827 L82.6080386,14.346 C82.4580386,14.05 82.3310386,13.742 82.2280386,13.423 L81.5520386,13.421 C80.6890386,13.414 79.9940386,12.711 80.0000386,11.856 L80.0060386,10.921 C80.0060386,10.507 80.1700386,10.114 80.4670386,9.819 C80.7640386,9.525 81.1360386,9.404 81.5720386,9.37 L82.2450386,9.373 C82.3510386,9.056 82.4800386,8.748 82.6330386,8.451 L82.1550386,7.968 C81.8630386,7.674 81.7040386,7.283 81.7060386,6.866 C81.7070386,6.45 81.8710386,6.059 82.1670386,5.767 L82.8320386,5.109 C83.4110386,4.528 84.4430386,4.528 85.0320386,5.119 L85.5110386,5.603 C85.8010386,5.458 86.0980386,5.335 86.4020386,5.235 L86.4020386,4.557 C86.4020386,3.698 87.1010386,3 87.9600386,3 L88.8930386,3 C89.7530386,3 90.4520386,3.698 90.4520386,4.557 L90.4520386,5.236 C90.7700386,5.339 91.0770386,5.467 91.3730386,5.618 L91.8560386,5.138 C92.1480386,4.845 92.5370386,4.684 92.9530386,4.684 C93.3870386,4.639 93.7620386,4.846 94.0560386,5.14 L94.7170386,5.802 C95.0120386,6.096 95.1730386,6.487 95.1720386,6.904 C95.1720386,7.321 95.0080386,7.712 94.7120386,8.006 L94.2350386,8.484 C94.3870386,8.782 94.5150386,9.091 94.6180386,9.41 L95.2960386,9.412 C96.1520386,9.413 96.8490386,10.109 96.8490386,10.966 L96.8490386,11.902 C96.8450386,12.762 96.1460386,13.459 95.2900386,13.459 L94.6120386,13.457 C94.5080386,13.774 94.3800386,14.083 94.2280386,14.381 L94.7040386,14.864 C94.9940386,15.149 95.1580386,15.541 95.1590386,15.958 C95.1590386,16.377 94.9950386,16.77 94.6970386,17.065 L94.0420386,17.72 C93.4280386,18.327 92.4410386,18.324 91.8360386,17.721 L91.3560386,17.237 C91.0580386,17.388 90.7490386,17.516 90.4320386,17.619 L90.4300386,18.299 C90.4300386,19.152 89.7310386,19.849 88.8710386,19.849 L88.8710386,19.849 Z" id="Fill-533" fill="#0073AA"></path>
        <path d="M38.749,102.498 C32.822,102.498 28,97.676 28,91.749 C28,85.821 32.822,81 38.749,81 C42.75,81 46.394,83.199 48.261,86.739 L46.935,87.439 C45.328,84.392 42.191,82.5 38.749,82.5 C33.649,82.5 29.5,86.649 29.5,91.749 C29.5,96.849 33.649,100.998 38.749,100.998 L38.749,102.498" id="Fill-534" fill="#0073AA"></path>
        <path d="M24.5,99.523 L23,99.523 C23,97.89 23.501,96.328 24.45,95.005 C25.519,93.516 27.08,92.448 28.848,92 L29.217,93.454 C27.791,93.815 26.531,94.677 25.669,95.879 C24.905,96.946 24.5,98.205 24.5,99.523" id="Fill-535" fill="#0073AA"></path>
        <path d="M48.5,102.521 L47,102.521 C47,100.889 47.501,99.327 48.45,98.005 C49.518,96.515 51.079,95.448 52.848,95 L53.217,96.454 C51.79,96.815 50.531,97.676 49.669,98.879 C48.904,99.945 48.5,101.205 48.5,102.521" id="Fill-536" fill="#0073AA"></path>
        <path d="M17.63,109.76 C12.14,109.76 8,105.835 8,100.63 C8,95.32 12.32,91 17.63,91 C20.88,91 23.89,92.623 25.679,95.342 L24.427,96.167 C22.915,93.871 20.374,92.5 17.63,92.5 C13.147,92.5 9.5,96.148 9.5,100.63 C9.5,104.98 12.995,108.26 17.63,108.26 L17.63,109.76" id="Fill-537" fill="#0073AA"></path>
        <path d="M137.825,93.872 C137.12,87.959 132.091,83.5 126.126,83.5 C122.134,83.5 118.444,85.498 116.256,88.846 L115,88.025 C117.466,84.252 121.625,82 126.126,82 C132.851,82 138.52,87.027 139.315,93.695 L137.825,93.872" id="Fill-538" fill="#0073AA"></path>
        <path d="M135.5,100.593 L134,100.593 C134,95.854 137.855,92 142.593,92 L142.593,93.5 C138.682,93.5 135.5,96.682 135.5,100.593" id="Fill-539" fill="#0073AA"></path>
        <path d="M154.428955,108.394775 C161.000955,108.394775 167.34,101.993 167.34,95.42 C167.34,88.847 161.992,83.5 155.42,83.5 C149.87,83.5 145.101,87.266 143.821,92.658 C143.609,93.556 143.5,94.485 143.5,95.42 L142,95.42 C142,94.369 142.122,93.323 142.362,92.311 C143.803,86.24 149.172,82 155.42,82 C162.82,82 168.84,88.02 168.84,95.42 C168.84,102.82 162.82,109.290283 155.42,109.290283 L154.428955,108.394775 Z" id="Fill-540" fill="#0073AA"></path>
        <path d="M118.996,102.234 C118.996,106.229 113.848,109.468 107.498,109.468 C101.148,109.468 96,106.229 96,102.234 C96,98.239 101.148,95 107.498,95 C113.848,95 118.996,98.239 118.996,102.234" id="Fill-541" fill="#FFFFFF"></path>
        <path d="M118.468,99.233 C118.468,103.229 115.23,106.467 111.234,106.467 C107.239,106.467 104,103.229 104,99.233 C104,95.238 107.239,92 111.234,92 C115.23,92 118.468,95.238 118.468,99.233" id="Fill-542" fill="#FFFFFF"></path>
        <path d="M108.565,100.283 C108.565,105.409 104.409,109.565 99.283,109.565 C94.156,109.565 90,105.409 90,100.283 C90,95.156 94.156,91 99.283,91 C104.409,91 108.565,95.156 108.565,100.283" id="Fill-543" fill="#FFFFFF"></path>
        <path d="M105.5,98.985 L104,98.985 C104,94.582 107.581,91 111.983,91 C113.608,91 115.172,91.486 116.507,92.405 L115.656,93.64 C114.573,92.894 113.303,92.5 111.983,92.5 C108.408,92.5 105.5,95.409 105.5,98.985" id="Fill-544" fill="#0073AA"></path>
        <path d="M154.109,103.905 L152.927,102.981 C153.429,102.339 153.72,101.568 153.769,100.751 C153.903,98.539 152.211,96.631 150,96.497 L150.09,95 C153.127,95.183 155.449,97.804 155.267,100.841 C155.198,101.963 154.798,103.022 154.109,103.905" id="Fill-545" fill="#0073AA"></path>
        <path d="M89,100.033 C89,94.5 93.501,90 99.033,90 C102.414,90 105.546,91.686 107.41,94.511 L106.158,95.337 C104.572,92.934 101.909,91.5 99.033,91.5 C94.328,91.5 90.5,95.328 90.5,100.033 C90.5,104.738 92.9743652,108.234863 98.5073242,108.234863 L99.2976074,109.354492 C93.7656074,109.354492 89,105.565 89,100.033 Z" id="Fill-546" fill="#0073AA"></path>
        <polygon id="Fill-547" points="0 109.5 2.739 109.5 2.739 108 0 108"></polygon>
        <polygon id="Fill-548" fill="#0073AA" points="168 109.5 174.049 109.5 174.049 108 168 108"></polygon>
        <polygon id="Fill-549" fill="#0073AA" points="3 109.842041 166.823 109.5 166.823 108 3 108.284424"></polygon>
        <polygon id="Path" fill="#0073AA" points="69 49.5 70.398 49.5 70.398 48 69 48"></polygon>
        <polygon id="Path" fill="#0073AA" points="73 49.5 74.399 49.5 74.399 48 73 48"></polygon>
        <polygon id="Path" fill="#0073AA" points="77 49.5 78.398 49.5 78.398 48 77 48"></polygon>
        <path d="M113.541,26.747 L112.949,28.113 L114.125,28.113 L113.541,26.747 Z M114.96,30.049 L114.522,29.034 L112.552,29.034 L112.115,30.049 L111,30.049 L113.03,25.349 L114.044,25.349 L116.076,30.049 L114.96,30.049 L114.96,30.049 Z" id="Fill-375" fill="#0073AA"></path>
        <path d="M118.049,29.161 L118.768,29.161 C119.068,29.161 119.294,29.124 119.444,29.051 C119.594,28.977 119.669,28.831 119.669,28.614 C119.669,28.396 119.59,28.253 119.43,28.183 C119.271,28.114 119.017,28.079 118.668,28.079 L118.049,28.079 L118.049,29.161 Z M118.049,27.252 L118.547,27.252 C118.838,27.252 119.053,27.221 119.195,27.158 C119.337,27.095 119.407,26.959 119.407,26.751 C119.407,26.543 119.341,26.405 119.212,26.338 C119.082,26.271 118.862,26.237 118.553,26.237 L118.049,26.237 L118.049,27.252 Z M119.057,30.049 L117,30.049 L117,25.349 L118.829,25.349 C119.147,25.349 119.422,25.387 119.652,25.463 C119.884,25.54 120.056,25.643 120.174,25.773 C120.384,26.015 120.489,26.288 120.489,26.593 C120.489,26.961 120.371,27.235 120.133,27.413 L119.965,27.532 L119.797,27.609 C120.088,27.671 120.32,27.802 120.493,28.002 C120.665,28.202 120.752,28.449 120.752,28.745 C120.752,29.072 120.639,29.361 120.416,29.612 C120.155,29.904 119.703,30.049 119.057,30.049 L119.057,30.049 Z" id="Fill-376" fill="#0073AA"></path>
        <path d="M123.441,29.228 C123.956,29.228 124.377,29.024 124.705,28.616 L125.377,29.309 C124.844,29.91 124.215,30.21 123.491,30.21 C122.767,30.21 122.171,29.981 121.702,29.524 C121.235,29.067 121,28.49 121,27.793 C121,27.096 121.238,26.515 121.716,26.048 C122.194,25.582 122.778,25.349 123.468,25.349 C124.238,25.349 124.884,25.643 125.405,26.229 L124.752,26.97 C124.42,26.557 124.008,26.351 123.515,26.351 C123.12,26.351 122.784,26.479 122.503,26.737 C122.223,26.995 122.082,27.343 122.082,27.779 C122.082,28.217 122.215,28.567 122.48,28.832 C122.743,29.097 123.065,29.228 123.441,29.228" id="Fill-377" fill="#0073AA"></path>
        <polygon id="Fill-378" fill="#0073AA" points="98 25.849 107.862 25.849 107.862 24.349 98 24.349"></polygon>
        <polygon id="Fill-379" fill="#0073AA" points="94 28.849 108.16 28.849 108.16 27.349 94 27.349"></polygon>
        <polygon id="Fill-380" fill="#0073AA" points="90 31.849 107.974 31.849 107.974 30.349 90 30.349"></polygon>
        <g id="Fill-455" transform="translate(31.435000, 49.500000)">
            <path d="M21.582,12.02 C21.582,12.019 21.582,12.016 21.582,12.014 C21.582,12.016 21.582,12.018 21.582,12.02 M21.582,11.98 C21.582,11.978 21.581,11.976 21.581,11.973 C21.581,11.976 21.582,11.978 21.582,11.98 M21.581,11.895 C21.581,11.892 21.581,11.889 21.581,11.886 C21.581,11.889 21.581,11.892 21.581,11.895 M21.581,11.856 C21.581,11.853 21.581,11.848 21.581,11.844 C21.581,11.849 21.581,11.852 21.581,11.856 M21.58,11.817 C21.58,11.813 21.58,11.81 21.58,11.806 C21.58,11.81 21.58,11.813 21.58,11.817 M21.58,11.767 C21.58,11.757 21.58,11.747 21.58,11.737 C21.58,11.747 21.58,11.757 21.58,11.767" fill="#98C7E1"></path>
            <path d="M31.179,28.396 L31.248,28.291 C31.253,28.295 31.259,28.298 31.265,28.302 C31.236,28.333 31.208,28.365 31.179,28.396" id="Fill-459" fill="#0073AA"></path>
            <path d="M35.184,9.973 L32.05,16.551 C32.343,18.381 32.275,20.299 31.764,22.206 C29.821,29.455 22.37,33.756 15.122,31.813 C7.873,29.87 3.572,22.419 5.515,15.17 C7.458,7.922 14.909,3.621 22.157,5.564 C24.717,6.25 26.898,7.632 28.577,9.441 L35.184,9.973" id="Fill-460" fill="#8AC4E6"></path>
            <path d="M18.619,5.845 C16.394,5.845 14.2,6.428 12.221,7.57 C9.252,9.285 7.128,12.053 6.24,15.365 C5.352,18.677 5.807,22.136 7.521,25.106 C9.236,28.076 12.004,30.2 15.316,31.088 C18.629,31.977 22.088,31.521 25.057,29.807 C28.027,28.092 30.151,25.324 31.039,22.012 C31.507,20.268 31.598,18.471 31.31,16.669 L31.273,16.439 L34.039,10.633 L28.227,10.165 L28.028,9.951 C26.381,8.177 24.283,6.91 21.963,6.288 C20.857,5.992 19.734,5.845 18.619,5.845 Z M18.663,33.032 C17.417,33.032 16.163,32.868 14.927,32.537 C11.228,31.545 8.136,29.173 6.222,25.856 C4.307,22.539 3.799,18.675 4.791,14.976 C5.782,11.277 8.155,8.185 11.471,6.271 C14.788,4.356 18.65,3.848 22.352,4.839 C24.85,5.509 27.116,6.847 28.924,8.716 L36.33,9.313 L32.827,16.666 C33.104,18.599 32.991,20.527 32.488,22.401 C31.497,26.1 29.124,29.191 25.807,31.105 C23.598,32.381 21.147,33.032 18.663,33.032 L18.663,33.032 Z" id="Fill-461" fill="#0073AA"></path>
            <path d="M27.49,21.061 C28.76,16.322 25.857,11.426 21.006,10.125 C16.154,8.825 11.191,11.612 9.921,16.351 C8.651,21.09 11.554,25.986 16.405,27.287 C21.257,28.587 26.22,25.8 27.49,21.061" id="Fill-462" fill="#FFFFFF"></path>
            <polyline id="Fill-463" fill="#0073AA" points="16.535 24.278 11.858 19.602 14.686 16.773 16.535 18.622 17.4762865 17.6807135 22.046 13.111 24.874 15.939 16.535 24.278 20.3554688 19.3138021"></polyline>
            <polygon id="Fill-464" fill="#0073AA" points="18.243 3.306 19.743 3.306 19.743 0 18.243 0"></polygon>
            <polyline id="Fill-465" fill="#0073AA" points="2.721 28.434 1.973 27.133 4.84 25.485 5.588 26.786 2.721 28.434"></polyline>
            <polyline id="Fill-466" fill="#0073AA" points="0.749 23.964 0.362 22.515 3.556 21.664 3.943 23.113 0.749 23.964"></polyline>
            <polyline id="Fill-467" fill="#0073AA" points="3.305 19.141 0 19.135 0.002 17.635 3.307 17.641 3.305 19.141"></polyline>
            <polyline id="Fill-468" fill="#0073AA" points="3.717 15.139 0.526 14.277 0.917 12.829 4.108 13.69 3.717 15.139"></polyline>
            <polyline id="Fill-469" fill="#0073AA" points="5.152 11.38 2.293 9.721 3.045 8.423 5.904 10.082 5.152 11.38"></polyline>
            <polyline id="Fill-470" fill="#0073AA" points="7.511 8.121 5.178 5.778 6.241 4.719 8.574 7.062 7.511 8.121"></polyline>
            <polyline id="Fill-471" fill="#0073AA" points="10.633 5.583 8.987 2.716 10.288 1.969 11.934 4.836 10.633 5.583"></polyline>
            <polyline id="Fill-472" fill="#0073AA" points="14.307 3.94 13.459 0.745 14.908 0.36 15.756 3.556 14.307 3.94"></polyline>
        </g>
        <path d="M44.98,20.5 C40.855,20.5 37.5,23.855 37.5,27.979 C37.5,32.103 40.855,35.459 44.98,35.459 C49.104,35.459 52.46,32.103 52.46,27.979 C52.46,23.855 49.104,20.5 44.98,20.5 Z M44.98,36.959 C40.028,36.959 36,32.931 36,27.979 C36,23.028 40.028,19 44.98,19 C49.932,19 53.96,23.028 53.96,27.979 C53.96,32.931 49.932,36.959 44.98,36.959 L44.98,36.959 Z" id="Fill-699" fill="#0073AA"></path>
        <path d="M48.272,36.215 L47,35.42 C48.243,33.432 48.928,30.825 48.928,28.078 C48.928,25.355 48.255,22.766 47.034,20.788 L48.31,20 C49.676,22.211 50.428,25.08 50.428,28.078 C50.428,31.102 49.662,33.992 48.272,36.215" id="Fill-700" fill="#0073AA"></path>
        <path d="M42.158,36.216 C40.767,33.992 40,31.102 40,28.078 C40,25.084 40.753,22.215 42.119,20 L43.396,20.788 C42.174,22.769 41.5,25.358 41.5,28.078 C41.5,30.824 42.186,33.431 43.43,35.42 L42.158,36.216" id="Fill-701" fill="#0073AA"></path>
        <polygon id="Fill-702" fill="#0073AA" points="44 36.459 45.5 36.459 45.5 20 44 20"></polygon>
        <polygon id="Fill-703" fill="#0073AA" points="37 28.5 53.46 28.5 53.46 27 37 27"></polygon>
        <polygon id="Fill-704" fill="#0073AA" points="38 24.5 52.212 24.5 52.212 23 38 23"></polygon>
        <polygon id="Fill-705" fill="#0073AA" points="38 32.5 52.34 32.5 52.34 31 38 31"></polygon>
    </g>
</svg>