<svg id="icon-done" width="100%" height="100%" viewBox="0 0 177 107" version="1.1" xmlns="http://www.w3.org/2000/svg" xmlns:xlink="http://www.w3.org/1999/xlink">
    <!-- Generator: Sketch 44.1 (41455) - http://www.bohemiancoding.com/sketch -->
    <desc>Created with Sketch.</desc>

    <g id="Page-1" stroke="none" stroke-width="1" fill="none" fill-rule="evenodd">
        <path d="M62.855,71.007 L62.759,71.007 C62.336,69.55 60.994,68.484 59.401,68.484 C58.705,68.484 58.059,68.689 57.514,69.039 C57.16,66.744 55.182,64.984 52.788,64.984 C50.638,64.984 48.82,66.4 48.215,68.35 C47.942,68.277 47.656,68.234 47.36,68.234 C45.72,68.234 44.364,69.436 44.116,71.007 L43.58,71.007 C42.23,71.007 41.125,72.112 41.125,73.462 L41.125,73.643 C41.125,74.993 42.23,76.098 43.58,76.098 L62.855,76.098 C64.205,76.098 65.31,74.993 65.31,73.643 L65.31,73.462 C65.31,72.112 64.205,71.007 62.855,71.007" id="Fill-447" fill="#FFFFFF"></path>
        <path d="M52.734,76.848 L43.552,76.848 C41.603,76.848 40.017,75.262 40.017,73.313 L40.017,73.108 C40.017,71.159 41.603,69.573 43.552,69.573 L43.565,69.573 C44.185,67.566 46.144,66.208 48.328,66.456 C48.409,66.268 48.501,66.083 48.602,65.904 C48.789,65.567 49.014,65.243 49.268,64.941 C50.447,63.543 52.171,62.741 53.997,62.741 C57.065,62.741 59.632,64.943 60.1,67.977 L58.617,68.205 C58.263,65.908 56.32,64.241 53.997,64.241 C52.614,64.241 51.309,64.848 50.415,65.907 C50.223,66.136 50.053,66.381 49.911,66.636 C49.75,66.923 49.621,67.223 49.526,67.531 L49.314,68.222 L48.614,68.034 C46.835,67.552 45.17,68.734 44.9,70.44 L44.8,71.073 L43.552,71.073 C42.43,71.073 41.517,71.986 41.517,73.108 L41.517,73.313 C41.517,74.435 42.43,75.348 43.552,75.348 L52.734,75.348 L52.734,76.848" id="Fill-449" fill="#0073AA"></path>
        <path d="M50.593,69.095 L49.093,69.095 C49.093,68.442 48.561,67.912 47.909,67.912 L47.909,66.412 C49.389,66.412 50.593,67.615 50.593,69.095" id="Fill-450" fill="#0073AA"></path>
        <path d="M118.93,55.565 C118.058,54.222 116.583,53.42 114.986,53.42 C114.142,53.42 113.313,53.647 112.59,54.076 L111.824,52.786 C112.779,52.22 113.872,51.92 114.986,51.92 C117.094,51.92 119.038,52.978 120.188,54.749 L118.93,55.565" id="Fill-453" fill="#0073AA"></path>
        <path d="M129.06,66.089 L116.041,66.089 L116.041,64.589 L129.06,64.589 C130.497,64.589 131.667,63.42 131.667,61.982 L131.667,61.735 C131.667,60.297 130.497,59.128 129.06,59.128 L128.365,59.128 L128.208,58.587 C127.712,56.874 126.119,55.679 124.337,55.679 C123.566,55.679 122.814,55.9 122.162,56.319 L121.191,56.941 L121.016,55.802 C120.577,52.958 118.172,50.894 115.295,50.894 C113.582,50.894 111.966,51.646 110.861,52.957 C110.624,53.238 110.414,53.542 110.235,53.861 C110.037,54.214 109.877,54.587 109.76,54.968 L109.546,55.658 L108.848,55.47 C108.52,55.382 108.193,55.337 107.875,55.337 L107.875,53.837 C108.102,53.837 108.33,53.853 108.559,53.884 C108.666,53.626 108.789,53.373 108.927,53.128 C109.151,52.727 109.416,52.344 109.715,51.99 C111.104,50.34 113.139,49.394 115.295,49.394 C118.572,49.394 121.364,51.521 122.274,54.579 C122.928,54.315 123.627,54.179 124.337,54.179 C126.598,54.179 128.635,55.581 129.469,57.648 C131.542,57.854 133.167,59.608 133.167,61.735 L133.167,61.982 C133.167,64.247 131.324,66.089 129.06,66.089" id="Fill-454" fill="#0073AA"></path>
        <path d="M120.512,17.724 L116.237,17.724 C115.823,17.724 115.487,17.388 115.487,16.974 C115.487,16.56 115.823,16.224 116.237,16.224 L120.512,16.224 C120.926,16.224 121.262,16.56 121.262,16.974 C121.262,17.388 120.926,17.724 120.512,17.724" id="Fill-456" fill="#0073AA"></path>
        <path d="M118.375,19.861 C117.961,19.861 117.625,19.525 117.625,19.111 L117.625,14.837 C117.625,14.423 117.961,14.087 118.375,14.087 C118.789,14.087 119.125,14.423 119.125,14.837 L119.125,19.111 C119.125,19.525 118.789,19.861 118.375,19.861" id="Fill-457" fill="#0073AA"></path>
        <path d="M43.262,17.724 L38.987,17.724 C38.573,17.724 38.237,17.388 38.237,16.974 C38.237,16.56 38.573,16.224 38.987,16.224 L43.262,16.224 C43.676,16.224 44.012,16.56 44.012,16.974 C44.012,17.388 43.676,17.724 43.262,17.724" id="Fill-458" fill="#0073AA"></path>
        <path d="M41.125,19.861 C40.711,19.861 40.375,19.525 40.375,19.111 L40.375,14.837 C40.375,14.423 40.711,14.087 41.125,14.087 C41.539,14.087 41.875,14.423 41.875,14.837 L41.875,19.111 C41.875,19.525 41.539,19.861 41.125,19.861" id="Fill-459" fill="#0073AA"></path>
        <path d="M167.776,59.179 C167.584,59.179 167.393,59.106 167.246,58.96 C166.953,58.667 166.953,58.192 167.246,57.899 L170.269,54.877 C170.561,54.583 171.036,54.583 171.329,54.877 C171.622,55.169 171.622,55.644 171.329,55.937 L168.307,58.96 C168.16,59.106 167.969,59.179 167.776,59.179" id="Fill-460" fill="#0073AA"></path>
        <path d="M170.799,59.179 C170.606,59.179 170.415,59.106 170.269,58.96 L167.246,55.937 C166.953,55.644 166.953,55.169 167.246,54.877 C167.539,54.583 168.014,54.583 168.307,54.877 L171.329,57.899 C171.622,58.192 171.622,58.667 171.329,58.96 C171.183,59.106 170.991,59.179 170.799,59.179" id="Fill-461" fill="#0073AA"></path>
        <polygon id="Fill-466" fill="#0073AA" points="52.286 13.45 93.083 13.45 93.083 11.95 52.286 11.95"></polygon>
        <polygon id="Fill-467" fill="#0073AA" points="9.023 59.856 34.619 59.856 34.619 58.356 9.023 58.356"></polygon>
        <polygon id="Fill-468" fill="#0073AA" points="142.007 67.75 161.109 67.75 161.109 66.25 142.007 66.25"></polygon>
        <polygon id="Fill-469" fill="#0073AA" points="163.403 67.75 166.009 67.75 166.009 66.25 163.403 66.25"></polygon>
        <path d="M93.102,28.199 C93.102,28.939 92.502,29.538 91.763,29.538 C91.024,29.538 90.425,28.939 90.425,28.199 C90.425,27.46 91.024,26.861 91.763,26.861 C92.502,26.861 93.102,27.46 93.102,28.199" id="Fill-471" fill="#0073AA"></path>
        <path d="M161.822,49.274 C161.822,50.147 161.114,50.855 160.241,50.855 C159.367,50.855 158.659,50.147 158.659,49.274 C158.659,48.401 159.367,47.693 160.241,47.693 C161.114,47.693 161.822,48.401 161.822,49.274" id="Fill-472" fill="#0073AA"></path>
        <path d="M141.313,34.272 L147.564,34.272 L147.586,33.937 C147.722,31.815 150.68,28.247 152.484,26.167 C154.733,23.575 156.095,20.192 156.095,16.49 C156.095,8.326 149.477,1.708 141.313,1.708 L141.313,34.272" id="Fill-474" fill="#E7F7FF"></path>
        <path d="M141.309,34.272 L135.058,34.272 L135.037,33.937 C134.9,31.815 131.941,28.247 130.137,26.167 C127.888,23.575 126.526,20.192 126.526,16.49 C126.526,8.326 133.144,1.708 141.308,1.708 L141.309,34.272" id="Fill-475" fill="#FFFFFF"></path>
        <path d="M141.211,34.272 L144.772,34.272 L144.784,33.937 C144.86,31.815 146.513,28.247 147.541,26.167 C148.822,23.575 149.598,20.192 149.598,16.49 C149.598,8.326 145.827,1.708 141.176,1.708 L141.211,34.272" id="Fill-476" fill="#FFFFFF"></path>
        <path d="M141.208,34.272 L137.647,34.272 L137.634,33.937 C137.554,31.815 135.835,28.247 134.807,26.167 C133.526,23.575 132.75,20.192 132.75,16.49 C132.75,8.326 136.521,1.708 141.173,1.708 L141.208,34.272" id="Fill-477" fill="#E7F7FF"></path>
        <path d="M141.96,33.522 L144.062,33.522 C144.235,31.818 145.157,29.296 146.869,25.835 C148.146,23.251 148.849,19.933 148.849,16.49 C148.849,9.346 145.749,3.243 141.927,2.528 L141.96,33.522 Z M145.497,35.022 L140.462,35.022 L140.425,0.957 L141.176,0.957 C146.319,0.957 150.349,7.78 150.349,16.49 C150.349,20.158 149.59,23.713 148.214,26.5 C146.064,30.848 145.569,32.959 145.534,33.964 L145.497,35.022 L145.497,35.022 Z" id="Fill-478" fill="#0073AA"></path>
        <path d="M138.354,33.522 L140.457,33.522 L140.424,2.524 C136.543,3.215 133.5,9.215 133.5,16.49 C133.5,19.935 134.203,23.253 135.479,25.835 C136.788,28.483 138.133,31.436 138.354,33.522 Z M141.959,35.022 L136.925,35.022 L136.885,33.966 C136.807,31.907 134.935,28.118 134.135,26.5 C132.759,23.715 132,20.161 132,16.49 C132,7.78 136.029,0.957 141.173,0.957 L141.922,0.957 L141.959,35.022 L141.959,35.022 Z" id="Fill-479" fill="#0073AA"></path>
        <path d="M135.731,33.522 L146.881,33.522 C147.175,31.771 148.781,29.27 151.891,25.706 C154.118,23.154 155.345,19.881 155.345,16.49 C155.345,12.573 153.771,8.939 150.914,6.257 C148.06,3.578 144.325,2.24 140.399,2.487 C133.477,2.925 127.855,8.467 127.324,15.378 C127.031,19.185 128.244,22.855 130.74,25.712 C133.7,29.1 135.375,31.723 135.731,33.522 Z M147.354,35.022 L135.273,35.022 C134.758,35.022 134.33,34.618 134.3,34.103 C134.21,32.708 132.501,30.007 129.611,26.699 C126.848,23.536 125.504,19.475 125.828,15.263 C126.417,7.611 132.641,1.475 140.306,0.99 C144.632,0.714 148.781,2.197 151.941,5.163 C155.058,8.089 156.845,12.217 156.845,16.49 C156.845,20.243 155.487,23.867 153.021,26.693 C149.258,31.005 148.396,33.039 148.334,33.986 L148.326,34.107 C148.293,34.621 147.865,35.022 147.354,35.022 L147.354,35.022 Z" id="Fill-480" fill="#0073AA"></path>
        <path d="M142.856,53.914 L140.071,53.914 C137.876,53.914 136.08,52.118 136.08,49.923 L136.08,44.851 L146.847,44.851 L146.847,49.923 C146.847,52.118 145.051,53.914 142.856,53.914" id="Fill-481" fill="#8AC4E6"></path>
        <path d="M137.51,49.923 L137.51,44.851 L136.08,44.851 L136.08,49.923 C136.08,52.118 137.876,53.914 140.071,53.914 L141.501,53.914 C139.306,53.914 137.51,52.118 137.51,49.923" id="Fill-482" fill="#E7F7FF"></path>
        <path d="M144.395,44.851 L144.395,49.923 C144.395,52.118 142.599,53.914 140.404,53.914 L142.856,53.914 C145.051,53.914 146.847,52.118 146.847,49.923 L146.847,44.851 L144.395,44.851" id="Fill-483" fill="#E7F7FF"></path>
        <polyline id="Fill-484" fill="#468EBF" points="137.51 47.072 137.51 44.851 144.395 44.851 144.395 46.106 137.51 47.072"></polyline>
        <path d="M136.829,45.601 L136.829,49.923 C136.829,51.71 138.283,53.164 140.07,53.164 L142.856,53.164 C144.644,53.164 146.098,51.71 146.098,49.923 L146.098,45.601 L136.829,45.601 Z M142.856,54.664 L140.07,54.664 C137.456,54.664 135.329,52.537 135.329,49.923 L135.329,44.101 L147.598,44.101 L147.598,49.923 C147.598,52.537 145.471,54.664 142.856,54.664 L142.856,54.664 Z" id="Fill-487" fill="#0073AA"></path>
        <path d="M147.265,44.788 L135.662,44.788 C135.113,44.788 134.664,44.339 134.664,43.79 L134.664,43.789 C134.664,43.24 135.113,42.791 135.662,42.791 L147.265,42.791 C147.814,42.791 148.263,43.24 148.263,43.789 L148.263,43.79 C148.263,44.339 147.814,44.788 147.265,44.788" id="Fill-488" fill="#62A6CF"></path>
        <path d="M135.662,43.541 C135.527,43.541 135.414,43.655 135.414,43.79 C135.414,43.924 135.527,44.038 135.662,44.038 L147.265,44.038 C147.399,44.038 147.514,43.924 147.514,43.79 C147.514,43.655 147.399,43.541 147.265,43.541 L135.662,43.541 Z M147.265,45.538 L135.662,45.538 C134.698,45.538 133.914,44.754 133.914,43.79 C133.914,42.825 134.698,42.041 135.662,42.041 L147.265,42.041 C148.229,42.041 149.014,42.825 149.014,43.79 C149.014,44.754 148.229,45.538 147.265,45.538 L147.265,45.538 Z" id="Fill-489" fill="#0073AA"></path>
        <polyline id="Fill-492" fill="#0073AA" points="137.017 43.04 134.32 34.334 135.754 33.891 138.45 42.596 137.017 43.04"></polyline>
        <polyline id="Fill-493" fill="#0073AA" points="145.721 43.024 144.279 42.611 146.729 34.065 148.17 34.479 145.721 43.024"></polyline>
        <path d="M104.043,65.339 L102.706,65.339 C100.86,65.339 99.349,63.829 99.349,61.982 C99.349,63.829 100.86,65.339 102.706,65.339 L104.043,65.339" id="Fill-494" fill="#96BCD2"></path>
        <path d="M117.288,66.089 L116.041,66.089 L116.041,64.589 L116.179,64.589 L117.288,66.089 M108.372,55.373 C108.205,55.349 108.039,55.337 107.875,55.337 L107.875,53.837 L107.958,53.843 L107.958,55.318 C108.101,55.318 108.24,55.337 108.372,55.373" id="Fill-497" fill="#2871AB"></path>
        <path d="M66.57,62.586 L97.489,105.676 L34.296,105.676 L66.149,62.583 C66.254,62.441 66.467,62.443 66.57,62.586" id="Fill-499" fill="#E7F7FF"></path>
        <path d="M33.692,105.23 L65.546,62.137 C65.735,61.881 66.039,61.727 66.358,61.727 C66.685,61.729 66.989,61.886 67.178,62.147 L77.6536458,76.6425781 L76.6692708,78.1077474 L66.35,63.574 L34.899,106.122 L33.692,105.23 Z" id="Fill-500" fill="#0073AA"></path>
        <polyline id="Fill-501" fill="#96BCD2" points="85.855 89.463 75.321 74.782 85.855 89.463"></polyline>
        <polygon id="Fill-502" fill="#8AC4E6" points="52.948 105.181 75.134847 75.8929036 97.134 105.181"></polygon>
        <polyline id="Fill-504" fill="#ADDDF8" points="143.251 105.181 56.448 105.181 99.205 45.594 143.251 105.181"></polyline>
        <polyline id="Fill-505" fill="#FFFFFF" points="109.61 59.649 107.731 57.282 107.841 57.133 99.193 45.594 91.22 57.133 90.913 57.133 88.916 59.649 92.121 64.116 94.206 61.295 99.407 68.543 104.542 61.596 106.405 64.116 109.61 59.649"></polyline>
        <polyline id="Fill-506" fill="#0073AA" points="142.641188 106.122 98.9618386 46.8885729 56.5677088 106.112927 55.3418229 105.231871 98.9437369 44.32 143.854 105.222798 142.641188 106.122"></polyline>
        <polygon id="Fill-507" fill="#0073AA" points="98.455 47.073 99.955 47.073 99.955 32.087 98.455 32.087"></polygon>
        <polyline id="Fill-508" fill="#8AC4E6" points="115.521 45.057 105.174 45.057 105.174 37.006 115.521 37.006 113.909 41.031 115.521 45.057"></polyline>
        <path d="M105.924,44.307 L114.412,44.307 L113.102,41.031 L114.412,37.756 L105.924,37.756 L105.924,44.307 Z M116.629,45.807 L104.424,45.807 L104.424,36.256 L116.629,36.256 L114.717,41.031 L116.629,45.807 L116.629,45.807 Z" id="Fill-509" fill="#0073AA"></path>
        <polygon id="Fill-510" fill="#ADDDF8" points="99.263 42.37 109.61 42.37 109.61 34.319 99.263 34.319"></polygon>
        <path d="M100.013,41.62 L108.86,41.62 L108.86,35.069 L100.013,35.069 L100.013,41.62 Z M98.513,43.12 L110.36,43.12 L110.36,33.569 L98.513,33.569 L98.513,43.12 Z" id="Fill-511" fill="#0073AA"></path>
        <path d="M21.023,89.476 C12.061,87.325 13.217,80.28 13.229,80.209 L13.341,79.591 L19.459,79.591 L19.459,81.091 L14.659,81.091 C14.643,82.622 15.225,86.542 21.373,88.017 L21.023,89.476" id="Fill-512" fill="#0073AA"></path>
        <path d="M36.928,89.476 L36.578,88.017 C42.766,86.532 43.325,82.62 43.297,81.091 L38.491,81.091 L38.491,79.591 L44.611,79.591 L44.722,80.209 C44.734,80.28 45.89,87.325 36.928,89.476" id="Fill-513" fill="#0073AA"></path>
        <path d="M38.565,81.6647988 C38.565,80.3060295 38.334,79.0116845 37.931,77.813 L19.997,77.813 C19.594,79.0116845 19.363,80.3060295 19.363,81.6647988 C19.363,87.2404387 23.08,92.8209593 27.864,93.5784342 L27.864,101.038 L30.064,101.038 L30.064,93.5784342 C34.848,92.8209593 38.565,87.2404387 38.565,81.6647988" id="Fill-514" fill="#E7F7FF"></path>
        <path d="M28.39,93.958 C23.949,92.768 22.961,87.189 22.961,81.759 C22.961,80.367 23.191,79.041 23.594,77.813 L21.436,77.813 C21.033,79.041 20.802,80.367 20.802,81.759 C20.802,87.471 23.08,93.188 27.864,93.964 C27.864,93.964 28.159,94.02 28.39,93.958" id="Fill-515" fill="#FFFFFF"></path>
        <polygon id="Fill-516" fill="#0073AA" points="24.596 78.563 26.353 78.563 26.353 77.063 24.596 77.063"></polygon>
        <path d="M30.815,100.856 L27.114,100.856 L27.114,93.5373925 C22.372,92.4292537 18.613,87.1764125 18.613,81.480504 C18.613,80.1465984 18.839,78.8239811 19.284,77.5483986 L19.454,77.063 L22.971,77.063 L22.971,78.4740426 L20.553,78.4740426 C20.261,79.4551875 20.113,80.4645533 20.113,81.480504 C20.113,86.6750221 23.718,91.6146118 27.984,92.2655728 L28.614,92.3615237 L28.614,99.4449574 L29.315,99.4449574 L29.315,92.3615237 L29.944,92.2655728 C34.21,91.6146118 37.815,86.6750221 37.815,81.480504 C37.815,80.465494 37.667,79.4561282 37.376,78.4740426 L27.461,78.4740426 L27.461,77.063 L38.476,77.063 L38.645,77.5483986 C39.089,78.8249218 39.315,80.1484798 39.315,81.480504 C39.315,87.1764125 35.556,92.4292537 30.815,93.5373925 L30.815,100.856" id="Fill-517" fill="#0073AA"></path>
        <polygon id="Fill-518" fill="#0073AA" points="26.758 96.12 31.287 96.12 31.287 94.62 26.758 94.62"></polygon>
        <polygon id="Fill-519" fill="#0073AA" points="26.758 98.803 31.287 98.803 31.287 97.303 26.758 97.303"></polygon>
        <path d="M24.061,105.007 L33.771,105.007 L33.771,101.861 C33.771,101.674 33.618,101.522 33.432,101.522 L24.399,101.522 C24.213,101.522 24.061,101.674 24.061,101.861 L24.061,105.007 Z M35.271,106.507 L22.561,106.507 L22.561,101.861 C22.561,100.847 23.386,100.022 24.399,100.022 L33.432,100.022 C34.445,100.022 35.271,100.847 35.271,101.861 L35.271,106.507 L35.271,106.507 Z" id="Fill-521" fill="#0073AA"></path>
        <polygon id="Fill-522" fill="#FFFFFF" points="25.909 104.025 31.923 104.025 31.923 101.625 25.909 101.625"></polygon>
        <polygon id="Fill-523" fill="#0073AA" points="27.461 103.575 30.289 103.575 30.289 102.075 27.461 102.075"></polygon>
        <polygon id="Fill-524" fill="#0073AA" points="21.198 106.507 36.418 106.507 36.418 105.007 21.198 105.007"></polygon>
        <polygon id="Fill-525" fill="#0073AA" points="0.294 106.426 3.033 106.426 3.033 104.926 0.294 104.926"></polygon>
        <polygon id="Fill-526" fill="#0073AA" points="170.241 106.426 176.29 106.426 176.29 104.926 170.241 104.926"></polygon>
        <polygon id="Fill-527" fill="#0073AA" points="4.856 106.426 168.679 106.426 168.679 104.926 4.856 104.926"></polygon>
        <path d="M80.646,41.035 C80.646,45.432 77.082,48.996 72.685,48.996 C68.288,48.996 64.723,45.432 64.723,41.035 C64.723,36.638 68.288,33.073 72.685,33.073 C77.082,33.073 80.646,36.638 80.646,41.035" id="Fill-528" fill="#E7F7FF"></path>

        <g class="spinning">
            <path d="M72.685,33.823 C68.708,33.823 65.473,37.058 65.473,41.035 C65.473,45.011 68.708,48.246 72.685,48.246 C76.661,48.246 79.896,45.011 79.896,41.035 C79.896,37.058 76.661,33.823 72.685,33.823 Z M72.685,49.746 C67.881,49.746 63.973,45.838 63.973,41.035 C63.973,36.231 67.881,32.323 72.685,32.323 C77.488,32.323 81.396,36.231 81.396,41.035 C81.396,45.838 77.488,49.746 72.685,49.746 L72.685,49.746 Z" id="Fill-529" fill="#0073AA"></path>
            <polygon id="Fill-530" fill="#0073AA" points="71.935 31.075 73.435 31.075 73.435 27.179 71.935 27.179"></polygon>
            <polyline id="Fill-531" fill="#0073AA" points="78.357 32.814 77.063 32.057 78.045 30.375 79.34 31.132 78.357 32.814"></polyline>
            <polyline id="Fill-532" fill="#0073AA" points="81.73 36.799 80.994 35.493 84.388 33.581 85.124 34.887 81.73 36.799"></polyline>
            <polyline id="Fill-533" fill="#0073AA" points="84.567 42.003 82.619 41.942 82.666 40.443 84.614 40.504 84.567 42.003"></polyline>
            <polyline id="Fill-534" fill="#0073AA" points="84.146 48.855 80.815 46.837 81.592 45.554 84.924 47.572 84.146 48.855"></polyline>
            <polyline id="Fill-535" fill="#0073AA" points="77.517 51.807 76.751 50.094 78.12 49.482 78.886 51.194 77.517 51.807"></polyline>
            <polyline id="Fill-536" fill="#0073AA" points="72.996 54.907 71.496 54.859 71.62 50.965 73.12 51.013 72.996 54.907"></polyline>
            <polyline id="Fill-537" fill="#0073AA" points="66.99 51.519 65.719 50.722 66.754 49.072 68.025 49.869 66.99 51.519"></polyline>
            <polyline id="Fill-538" fill="#0073AA" points="60.752 48.115 60.057 46.786 63.509 44.982 64.204 46.311 60.752 48.115"></polyline>
            <polygon id="Fill-539" fill="#0073AA" points="60.79 41.313 62.736 41.313 62.736 39.813 60.79 39.813"></polygon>
            <polyline id="Fill-540" fill="#0073AA" points="63.926 36.236 60.658 34.113 61.475 32.855 64.742 34.978 63.926 36.236"></polyline>
            <polyline id="Fill-541" fill="#0073AA" points="67.543 32.472 66.72 30.835 68.06 30.161 68.883 31.798 67.543 32.472"></polyline>
            <path d="M156.536,105.296 L157.412,100.276 C157.587,99.271 156.814,98.351 155.794,98.351 L138.854,98.351 C137.834,98.351 137.061,99.271 137.236,100.276 L138.112,105.296 L156.536,105.296" id="Fill-542" fill="#FFFFFF"></path>

        </g>

        <path d="M157.274,105.425 L155.796,105.167 L156.694,100.023 C156.735,99.79 156.674,99.563 156.523,99.382 C156.37,99.201 156.156,99.102 155.92,99.102 L138.729,99.102 C138.492,99.102 138.278,99.201 138.126,99.382 C137.975,99.563 137.913,99.79 137.954,100.023 L138.852,105.167 L137.373,105.425 L136.476,100.281 C136.359,99.614 136.543,98.935 136.979,98.417 C137.413,97.898 138.052,97.602 138.729,97.602 L155.92,97.602 C156.597,97.602 157.234,97.898 157.67,98.417 C158.105,98.935 158.289,99.614 158.173,100.281 L157.274,105.425" id="Fill-543" fill="#0073AA"></path>
        <polygon id="Fill-544" fill="#0073AA" points="146.314 98.834 148.06 98.834 148.06 93.06 146.314 93.06"></polygon>
        <path d="M157.033,86.407 C157.033,86.407 157.34,90.568 154.964,92.945 C152.587,95.321 148.426,95.014 148.426,95.014 C148.426,95.014 148.118,90.852 150.495,88.475 C152.871,86.099 157.033,86.407 157.033,86.407" id="Fill-550" fill="#E7F7FF"></path>
        <path d="M156.292,87.148 C155.09,87.181 152.584,87.446 151.024,89.006 C149.467,90.564 149.2,93.069 149.168,94.272 C150.37,94.239 152.875,93.973 154.434,92.414 C155.999,90.849 156.262,88.349 156.292,87.148 Z M148.918,95.778 C148.604,95.778 148.406,95.764 148.37,95.762 L147.726,95.714 L147.678,95.069 C147.664,94.885 147.375,90.536 149.964,87.945 C152.555,85.355 156.905,85.646 157.088,85.659 L157.732,85.707 L157.78,86.351 C157.794,86.535 158.084,90.885 155.494,93.475 C153.414,95.555 150.198,95.778 148.918,95.778 L148.918,95.778 Z" id="Fill-551" fill="#0073AA"></path>
        <path d="M146.488,95.014 C146.488,95.014 146.796,90.852 144.419,88.475 C142.042,86.099 137.881,86.407 137.881,86.407 C137.881,86.407 137.573,90.568 139.95,92.945 C142.327,95.321 146.488,95.014 146.488,95.014" id="Fill-552" fill="#E7F7FF"></path>
        <path d="M138.623,87.147 C138.655,88.349 138.921,90.855 140.48,92.414 C142.039,93.973 144.544,94.239 145.746,94.272 C145.714,93.069 145.447,90.564 143.889,89.006 C142.323,87.44 139.823,87.177 138.623,87.147 Z M145.996,95.778 C144.716,95.778 141.5,95.555 139.42,93.475 C136.83,90.885 137.119,86.535 137.133,86.352 L137.181,85.707 L137.825,85.659 C138.009,85.646 142.359,85.354 144.949,87.945 C147.539,90.535 147.25,94.885 147.236,95.069 L147.189,95.714 L146.544,95.762 C146.508,95.764 146.31,95.778 145.996,95.778 L145.996,95.778 Z" id="Fill-553" fill="#0073AA"></path>
    </g>
</svg>