<svg id="icon-options" width="100%" height="100%" viewBox="0 0 179 95" version="1.1" xmlns="http://www.w3.org/2000/svg" xmlns:xlink="http://www.w3.org/1999/xlink">
    <!-- Generator: Sketch 44.1 (41455) - http://www.bohemiancoding.com/sketch -->
    <desc>Created with Sketch.</desc>

    <g id="Page-1" stroke="none" stroke-width="1" fill="none" fill-rule="evenodd">
        <path d="M162.238416,41.0256956 L161.782416,38.7086956 C161.569416,37.0636956 160.061416,35.9026956 158.416416,36.1156956 L123.618416,40.6336956 C121.972416,40.8476956 120.811416,42.3546956 121.025416,43.9996956 L127.394416,93.0586956 L166.852416,80.9746956 L162.238416,41.0256956" id="Fill-261" fill="#FFFFFF"></path>
        <path d="M161.071,41.9176994 L160.615,39.6016994 C160.53,38.9556994 160.224,38.4246994 159.748,38.0576994 C159.27,37.6906994 158.681,37.5276994 158.082,37.6086994 L134.193,40.7096994 L134,39.2216994 L157.888,36.1196994 C159.944,35.8646994 161.828,37.3076994 162.095,39.3606994 L162.543,41.6286994 L161.071,41.9176994" id="Fill-262" fill="#0073AA"></path>
        <path d="M131.89,98.5695 L169.208,98.5695 C170.252,98.5695 171.099,97.7225 171.099,96.6785 L171.099,44.9815 C171.099,43.9375 170.252,43.0905 169.208,43.0905 L131.89,43.0905 C130.846,43.0905 130,43.9375 130,44.9815 L130,96.6785 C130,97.7225 130.846,98.5695 131.89,98.5695" id="Fill-263" fill="#8AC4E6"></path>
        <path d="M167.689,99.0695 L167.689,97.5695 C169.105,97.5695 170.256,96.4165 170.256,95.0005 L170.256,46.1595 C170.256,44.7435 169.105,43.5905 167.689,43.5905 L142,43.5905 L142,42.0905 L167.689,42.0905 C169.932,42.0905 171.756,43.9165 171.756,46.1595 L171.756,95.0005 C171.756,97.2445 169.932,99.0695 167.689,99.0695" id="Fill-264" fill="#0073AA"></path>
        <polygon id="Fill-265" fill="#0073AA" points="168 49.5905 175.601 49.5905 175.601 48.0905 168 48.0905"></polygon>
        <polygon id="Fill-266" fill="#0073AA" points="168 55.5905 175.601 55.5905 175.601 54.0905 168 54.0905"></polygon>
        <polygon id="Fill-267" fill="#0073AA" points="168 60.5905 175.601 60.5905 175.601 59.0905 168 59.0905"></polygon>
        <polygon id="Fill-268" fill="#0073AA" points="168 65.5905 175.601 65.5905 175.601 64.0905 168 64.0905"></polygon>
        <polygon id="Fill-269" fill="#0073AA" points="168 71.5905 175.601 71.5905 175.601 70.0905 168 70.0905"></polygon>
        <polygon id="Fill-270" fill="#0073AA" points="168 76.5905 175.601 76.5905 175.601 75.0905 168 75.0905"></polygon>
        <polygon id="Fill-271" fill="#0073AA" points="168 82.5905 175.391 82.5905 175.391 81.0905 168 81.0905"></polygon>
        <polygon id="Fill-272" fill="#0073AA" points="168 87.5905 175.391 87.5905 175.391 86.0905 168 86.0905"></polygon>
        <polygon id="Fill-273" fill="#0073AA" points="168 92.5905 175.391 92.5905 175.391 91.0905 168 91.0905"></polygon>
        <path d="M142,65.0595 C142,70.0125 146.016,74.0285 150.969,74.0285 C155.922,74.0285 159.938,70.0125 159.938,65.0595 C159.938,60.1065 155.922,56.0905 150.969,56.0905 C146.016,56.0905 142,60.1065 142,65.0595" id="Fill-274" fill="#FFFFFF"></path>
        <path d="M150.718,56.5905 C146.186,56.5905 142.5,60.2775 142.5,64.8095 C142.5,69.3415 146.186,73.0285 150.718,73.0285 C155.25,73.0285 158.937,69.3415 158.937,64.8095 C158.937,60.2775 155.25,56.5905 150.718,56.5905 Z M150.718,74.5285 C145.359,74.5285 141,70.1695 141,64.8095 C141,59.4505 145.359,55.0905 150.718,55.0905 C156.078,55.0905 160.437,59.4505 160.437,64.8095 C160.437,70.1695 156.078,74.5285 150.718,74.5285 L150.718,74.5285 Z" id="Fill-275" fill="#0073AA"></path>
        <path d="M43.984,22.8825 L43.984,97.5515 C43.984,97.9885 43.63,98.3435 43.193,98.3435 L32.792,98.3435 C32.354,98.3435 32,97.9885 32,97.5515 L32,22.8825 C32,22.4455 32.354,22.0905 32.792,22.0905 L43.193,22.0905 C43.63,22.0905 43.984,22.4455 43.984,22.8825" id="Fill-276" fill="#8AC4E6"></path>
        <path d="M32.687,98.3435 L36.932,98.3435 L36.932,22.0905 L32.687,22.0905 C32.308,22.0905 32,22.4355 32,22.8605 L32,97.5745 C32,97.9995 32.308,98.3435 32.687,98.3435" id="Fill-277" fill="#E7F7FF"></path>
        <path d="M32.5,98.2565 L31,98.2565 L31,23.6765 C31,22.8025 31.712,22.0905 32.586,22.0905 L42.898,22.0905 C43.773,22.0905 44.485,22.8025 44.485,23.6765 L44.485,29.9295 L42.985,29.9295 L42.985,23.6765 L42.898,23.5905 L32.586,23.5905 L32.5,23.6765 L32.5,98.2565" id="Fill-278" fill="#0073AA"></path>
        <polygon id="Fill-279" fill="#0073AA" points="32 93.5905 37.519 93.5905 37.519 92.0905 32 92.0905"></polygon>
        <polygon id="Fill-280" fill="#0073AA" points="32 85.5905 37.519 85.5905 37.519 84.0905 32 84.0905"></polygon>
        <polygon id="Fill-281" fill="#0073AA" points="32 77.5905 37.519 77.5905 37.519 76.0905 32 76.0905"></polygon>
        <polygon id="Fill-282" fill="#0073AA" points="32 69.5905 37.519 69.5905 37.519 68.0905 32 68.0905"></polygon>
        <polygon id="Fill-283" fill="#0073AA" points="32 61.5905 37.519 61.5905 37.519 60.0905 32 60.0905"></polygon>
        <polygon id="Fill-284" fill="#0073AA" points="32 53.5905 37.519 53.5905 37.519 52.0905 32 52.0905"></polygon>
        <polygon id="Fill-285" fill="#0073AA" points="32 45.5905 37.519 45.5905 37.519 44.0905 32 44.0905"></polygon>
        <polygon id="Fill-286" fill="#0073AA" points="32 37.5905 37.519 37.5905 37.519 36.0905 32 36.0905"></polygon>
        <polygon id="Fill-287" fill="#0073AA" points="32 29.5905 37.519 29.5905 37.519 28.0905 32 28.0905"></polygon>
        <path d="M183.024,39.5905 L178.75,39.5905 C178.336,39.5905 178,39.2545 178,38.8405 C178,38.4265 178.336,38.0905 178.75,38.0905 L183.024,38.0905 C183.438,38.0905 183.774,38.4265 183.774,38.8405 C183.774,39.2545 183.438,39.5905 183.024,39.5905" id="Fill-288" fill="#0073AA"></path>
        <path d="M180.75,41.8645 C180.336,41.8645 180,41.5285 180,41.1145 L180,36.8405 C180,36.4255 180.336,36.0905 180.75,36.0905 C181.164,36.0905 181.5,36.4255 181.5,36.8405 L181.5,41.1145 C181.5,41.5285 181.164,41.8645 180.75,41.8645" id="Fill-289" fill="#0073AA"></path>
        <path d="M77.024,20.5905 L72.75,20.5905 C72.336,20.5905 72,20.2545 72,19.8405 C72,19.4265 72.336,19.0905 72.75,19.0905 L77.024,19.0905 C77.438,19.0905 77.774,19.4265 77.774,19.8405 C77.774,20.2545 77.438,20.5905 77.024,20.5905" id="Fill-290" fill="#0073AA"></path>
        <path d="M74.75,21.8645 C74.336,21.8645 74,21.5285 74,21.1145 L74,16.8405 C74,16.4265 74.336,16.0905 74.75,16.0905 C75.164,16.0905 75.5,16.4265 75.5,16.8405 L75.5,21.1145 C75.5,21.5285 75.164,21.8645 74.75,21.8645" id="Fill-291" fill="#0073AA"></path>
        <path d="M136.74975,9.61225064 C136.55775,9.61225064 136.36575,9.53925064 136.21975,9.39225064 C135.92675,9.09925064 135.92675,8.62525064 136.21975,8.33225064 L139.24175,5.31025064 C139.53575,5.01625064 140.01075,5.01825064 140.30275,5.31025064 C140.59575,5.60325064 140.59575,6.07825064 140.30275,6.37125064 L137.28075,9.39225064 C137.13375,9.53925064 136.94275,9.61225064 136.74975,9.61225064" id="Fill-292" fill="#0073AA"></path>
        <path d="M139.77275,9.61225 C139.57975,9.61225 139.38875,9.53925 139.24175,9.39225 L136.21975,6.37125 C135.92675,6.07825 135.92675,5.60325 136.21975,5.31025 C136.51275,5.01725 136.98775,5.01725 137.28075,5.31025 L140.30275,8.33225 C140.59575,8.62525 140.59575,9.09925 140.30275,9.39225 C140.15575,9.53925 139.96475,9.61225 139.77275,9.61225" id="Fill-293" fill="#0073AA"></path>
        <path d="M1.74975,35.61325 C1.55775,35.61325 1.36575,35.54025 1.21975,35.39325 C0.92675,35.10025 0.92675,34.62625 1.21975,34.33325 L4.24175,31.31025 C4.53475,31.01725 5.00975,31.01725 5.30275,31.31025 C5.59575,31.60325 5.59575,32.07825 5.30275,32.37125 L2.27975,35.39325 C2.13375,35.54025 1.94275,35.61325 1.74975,35.61325" id="Fill-294" fill="#0073AA"></path>
        <path d="M4.77275,35.61325 C4.57975,35.61325 4.38875,35.54025 4.24175,35.39325 L1.21975,32.37125 C0.92675,32.07825 0.92675,31.60325 1.21975,31.31025 C1.51275,31.01725 1.98675,31.01725 2.27975,31.31025 L5.30275,34.33325 C5.59575,34.62625 5.59575,35.10025 5.30275,35.39325 C5.15575,35.54025 4.96475,35.61325 4.77275,35.61325" id="Fill-295" fill="#0073AA"></path>
        <polygon id="Fill-296" fill="#0073AA" points="60 1.5905 89.39 1.5905 89.39 0.0905 60 0.0905"></polygon>
        <polygon id="Fill-297" fill="#0073AA" points="112 23.5905 141.39 23.5905 141.39 22.0905 112 22.0905"></polygon>
        <polygon id="Fill-298" fill="#0073AA" points="76 7.5905 130.342 7.5905 130.342 6.0905 76 6.0905"></polygon>
        <polygon id="Fill-299" fill="#0073AA" points="0.557 45.5905 16.48 45.5905 16.48 44.0905 0.557 44.0905"></polygon>
        <polygon id="Fill-300" fill="#0073AA" points="179 46.5905 198.352 46.5905 198.352 45.0905 179 45.0905"></polygon>
        <polygon id="Fill-301" fill="#0073AA" points="91 1.5905 94.57 1.5905 94.57 0.0905 91 0.0905"></polygon>
        <path d="M105.693,31.4375 C105.693,32.1815 105.09,32.7845 104.347,32.7845 C103.603,32.7845 103,32.1815 103,31.4375 C103,30.6935 103.603,30.0905 104.347,30.0905 C105.09,30.0905 105.693,30.6935 105.693,31.4375" id="Fill-302" fill="#0073AA"></path>
        <path d="M17.52,67.8505 C17.52,68.8215 16.732,69.6095 15.76,69.6095 C14.788,69.6095 14,68.8215 14,67.8505 C14,66.8785 14.788,66.0905 15.76,66.0905 C16.732,66.0905 17.52,66.8785 17.52,67.8505" id="Fill-303" fill="#0073AA"></path>
        <path d="M39.52,14.8495 C39.52,15.8215 38.732,16.6095 37.76,16.6095 C36.788,16.6095 36,15.8215 36,14.8495 C36,13.8785 36.788,13.0905 37.76,13.0905 C38.732,13.0905 39.52,13.8785 39.52,14.8495" id="Fill-304" fill="#0073AA"></path>
        <path d="M184.519,82.8505 C184.519,83.8225 183.731,84.6105 182.759,84.6105 C181.788,84.6105 181,83.8225 181,82.8505 C181,81.8785 181.788,81.0905 182.759,81.0905 C183.731,81.0905 184.519,81.8785 184.519,82.8505" id="Fill-305" fill="#0073AA"></path>
        <path d="M132.248,98.2755 L131.95,45.3365 C131.95,41.3345 128.303,38.0905 123.804,38.0905 L48,38.0905 L48.298,98.3365 L132.248,98.2755" id="Fill-306" fill="#FFFFFF"></path>
        <path d="M131.498,99.0295 L131.2,46.0905 C131.2,42.5045 127.882,39.5905 123.803,39.5905 L48,39.5905 L48,38.0905 L123.803,38.0905 C128.709,38.0905 132.7,41.6775 132.7,46.0865 L132.998,99.0215 L131.498,99.0295" id="Fill-307" fill="#0073AA"></path>
        <path d="M124,98.4195 L132.457,98.4195 L132.457,35.9435 C132.457,32.7115 129.551,30.0905 125.966,30.0905 L124,30.0905 L124,98.4195" id="Fill-308" fill="#0073AA"></path>
        <path d="M124.5,99.1685 L123,99.1685 L123,30.0905 L125.716,30.0905 C129.709,30.0905 132.957,33.3385 132.957,37.3305 L132.957,45.1685 L131.457,45.1685 L131.457,37.3305 C131.457,34.1655 128.881,31.5905 125.716,31.5905 L124.5,31.5905 L124.5,99.1685" id="Fill-309" fill="#0073AA"></path>
        <path d="M50.457,98.4185 L42,98.4185 L42,35.9425 C42,32.7105 44.906,30.0905 48.49,30.0905 L50.457,30.0905 L50.457,98.4185" id="Fill-310" fill="#0073AA"></path>
        <path d="M51.957,99.1685 L50.457,99.1685 L50.457,31.5905 L49.24,31.5905 C46.075,31.5905 43.5,34.1655 43.5,37.3305 L43.5,99.1685 L42,99.1685 L42,37.3305 C42,33.3385 45.248,30.0905 49.24,30.0905 L51.957,30.0905 L51.957,99.1685" id="Fill-311" fill="#0073AA"></path>
        <path d="M102.63975,55.48925 C108.50475,61.35425 108.50475,70.86425 102.63975,76.73025 C96.77375,82.59525 87.26475,82.59525 81.39875,76.73025 C75.53375,70.86425 75.53375,61.35425 81.39875,55.48925 C87.26475,49.62425 96.77375,49.62425 102.63975,55.48925" id="Fill-312" fill="#E7F7FF"></path>
        <path d="M86.597,59.7075 C85.994,59.6295 85.379,59.5905 84.77,59.5905 L84.733,58.0905 L84.77,58.0905 C85.443,58.0905 86.123,58.1345 86.789,58.2185 L86.597,59.7075 M81.042,60.0845 L80.652,58.6345 C81.316,58.4565 81.996,58.3205 82.674,58.2305 L82.871,59.7165 C82.258,59.7985 81.643,59.9215 81.042,60.0845 M90.198,60.6585 C89.625,60.4235 89.03,60.2235 88.427,60.0635 L88.812,58.6145 C89.477,58.7905 90.134,59.0105 90.766,59.2695 L90.198,60.6585 M77.605,61.5145 L76.851,60.2175 C77.444,59.8735 78.066,59.5645 78.7,59.3015 L79.276,60.6855 C78.703,60.9235 78.141,61.2025 77.605,61.5145 M93.423,62.5105 C92.932,62.1345 92.411,61.7875 91.871,61.4775 L92.62,60.1765 C93.214,60.5185 93.792,60.9035 94.335,61.3195 L93.423,62.5105 M74.68,63.7685 L73.595,62.7325 L73.62,62.7085 C74.094,62.2325 74.606,61.7825 75.139,61.3705 L76.057,62.5555 C75.574,62.9295 75.111,63.3385 74.68,63.7685 M96.092,65.1715 C95.717,64.6835 95.302,64.2115 94.86,63.7685 L95.889,62.6765 L95.92,62.7085 C96.409,63.1965 96.867,63.7175 97.282,64.2575 L96.092,65.1715 M72.395,66.7495 L71.094,66.0015 C71.435,65.4085 71.82,64.8315 72.239,64.2865 L73.428,65.1985 C73.05,65.6915 72.703,66.2135 72.395,66.7495 M97.955,68.3955 C97.719,67.8235 97.441,67.2595 97.13,66.7215 L98.429,65.9715 C98.773,66.5665 99.079,67.1885 99.342,67.8215 L97.955,68.3955 M70.977,70.1915 L69.528,69.8065 C69.703,69.1455 69.923,68.4875 70.185,67.8525 L71.572,68.4235 C71.336,68.9975 71.136,69.5915 70.977,70.1915 M98.918,71.9915 C98.837,71.3735 98.715,70.7585 98.555,70.1625 L100.004,69.7735 C100.181,70.4335 100.316,71.1135 100.405,71.7965 L98.918,71.9915 M69,73.8865 L69,73.8595 C69,73.1815 69.044,72.4985 69.13,71.8305 L70.619,72.0215 C70.54,72.6275 70.5,73.2455 70.5,73.8595 L69,73.8865 M100.408,75.9125 L98.919,75.7175 C98.999,75.1055 99.041,74.4805 99.041,73.8585 L100.54,73.8545 L100.54,73.8585 C100.54,74.5455 100.496,75.2355 100.408,75.9125 M69.542,77.9665 C69.365,77.3065 69.228,76.6275 69.138,75.9445 L70.624,75.7475 C70.706,76.3645 70.83,76.9805 70.991,77.5765 L69.542,77.9665 M99.347,79.8865 L97.96,79.3165 C98.198,78.7395 98.399,78.1445 98.558,77.5485 L100.007,77.9345 C99.831,78.5925 99.61,79.2505 99.347,79.8865 M71.124,81.7665 C70.778,81.1705 70.469,80.5475 70.207,79.9185 L71.592,79.3415 C71.829,79.9125 72.108,80.4745 72.42,81.0145 L71.124,81.7665 M97.289,83.4515 L96.099,82.5375 C96.48,82.0425 96.829,81.5205 97.136,80.9875 L98.435,81.7375 C98.095,82.3275 97.709,82.9035 97.289,83.4515 M73.636,85.0265 L73.62,85.0095 C73.139,84.5295 72.687,84.0155 72.274,83.4805 L73.461,82.5645 C73.835,83.0475 74.246,83.5135 74.68,83.9495 L73.636,85.0265 M94.382,86.3625 L93.466,85.1745 C93.955,84.7975 94.423,84.3855 94.86,83.9495 L95.929,85.0015 L95.92,85.0095 C95.439,85.4915 94.921,85.9465 94.382,86.3625 M76.902,87.5295 C76.307,87.1865 75.731,86.8015 75.188,86.3845 L76.1,85.1955 C76.591,85.5715 77.114,85.9205 77.652,86.2305 L76.902,87.5295 M90.818,88.4265 L90.244,87.0425 C90.817,86.8035 91.379,86.5255 91.916,86.2155 L92.668,87.5115 C92.075,87.8565 91.453,88.1645 90.818,88.4265 M80.706,89.0985 C80.04,88.9215 79.382,88.6995 78.751,88.4395 L79.324,87.0525 C79.894,87.2885 80.489,87.4885 81.092,87.6495 L80.706,89.0985 M86.843,89.4925 L86.646,88.0055 C87.262,87.9235 87.878,87.8015 88.477,87.6405 L88.866,89.0905 C88.204,89.2665 87.523,89.4025 86.843,89.4925 M84.786,89.6295 L84.77,89.6295 C84.089,89.6295 83.403,89.5845 82.73,89.4975 L82.923,88.0085 C83.533,88.0885 84.155,88.1295 84.77,88.1295 L84.786,89.6295" id="Fill-313" fill="#0073AA"></path>
        <polygon id="Fill-314" fill="#0073AA" points="13 99.5905 176.821 99.5905 176.821 98.0905 13 98.0905"></polygon>
        <polygon id="Fill-315" fill="#0073AA" points="8 99.5905 10.739 99.5905 10.739 98.0905 8 98.0905"></polygon>
        <polygon id="Fill-316" fill="#0073AA" points="178 99.5905 184.05 99.5905 184.05 98.0905 178 98.0905"></polygon>
        <path d="M123.193,97.8505 L79,97.8505 C79.009,97.4835 79.156,97.1265 79.427,96.8555 L87.587,88.6955 C88.03,88.6165 88.47,88.5185 88.902,88.4035 L88.685,87.5975 L95.741,80.5415 C96.952,80.2295 98.133,79.7635 99.25,79.1455 L99.383,79.1995 C99.406,79.1435 99.429,79.0885 99.451,79.0315 C100.578,78.3855 101.639,77.5805 102.601,76.6185 C104.569,74.6505 105.876,72.2725 106.524,69.7595 L123.193,53.0905 L123.193,66.3225 L99.522,89.9935 L123.193,89.9935 L123.193,97.8505 M91.952,85.5285 C91.415,85.8385 90.853,86.1165 90.28,86.3555 L90.854,87.7395 C91.489,87.4775 92.111,87.1695 92.704,86.8245 L91.952,85.5285 M94.896,83.2625 C94.459,83.6985 93.991,84.1105 93.502,84.4875 L94.418,85.6755 C94.957,85.2595 95.475,84.8045 95.956,84.3225 L95.965,84.3145 L94.896,83.2625 M97.172,80.3005 C96.865,80.8335 96.516,81.3555 96.135,81.8505 L97.325,82.7645 C97.745,82.2165 98.131,81.6405 98.471,81.0505 L97.172,80.3005" id="Fill-317" fill="#B4D7E7"></path>
        <polyline id="Fill-318" fill="#0073AA" points="133.246 97.7965 133 97.7965 133 54.0905 133 54.0945 133.246 97.7965"></polyline>
        <polyline id="Fill-319" fill="#4B97C6" points="132.707 98.3405 125 98.3405 125 90.4835 129.48 90.4835 129.48 60.8315 125 65.3125 125 52.0805 131.99 45.0905 132.707 45.0905 132.707 98.3405"></polyline>
        <path d="M123,97.8075 L124.5,97.8075 L124.5,89.9505 L123,89.9505 L123,97.8075 Z M123,66.2795 L123,53.0475 L124.5,51.5475 L124.5,64.7795 L123,66.2795 L123,66.2795 Z M132.957,44.5575 L131.49,44.5575 L132.957,43.0905 L132.957,44.5575 L132.957,44.5575 Z" id="Fill-320" fill="#0073AA"></path>
        <path d="M96,80.8725 L98.472,78.4005 C98.404,78.5885 98.332,78.7755 98.255,78.9605 L99.509,79.4765 C98.392,80.0945 97.211,80.5605 96,80.8725 M99.71,79.3625 C99.943,78.7785 100.142,78.1795 100.302,77.5785 L99.506,77.3665 L106.783,70.0905 C106.135,72.6035 104.828,74.9815 102.86,76.9495 C101.898,77.9115 100.837,78.7165 99.71,79.3625" id="Fill-321" fill="#93C5E0"></path>
        <path d="M88,88.7505 L89.098,87.6525 L89.315,88.4585 C88.883,88.5735 88.443,88.6715 88,88.7505 M91.267,87.7945 L90.693,86.4105 C91.266,86.1715 91.828,85.8935 92.365,85.5835 L93.117,86.8795 C92.524,87.2245 91.902,87.5325 91.267,87.7945 M94.831,85.7305 L93.915,84.5425 C94.404,84.1655 94.872,83.7535 95.309,83.3175 L96.378,84.3695 L96.369,84.3775 C95.888,84.8595 95.37,85.3145 94.831,85.7305 M97.738,82.8195 L96.548,81.9055 C96.929,81.4105 97.278,80.8885 97.585,80.3555 L98.884,81.1055 C98.544,81.6955 98.158,82.2715 97.738,82.8195 M99.796,79.2545 L99.663,79.2005 L98.409,78.6845 C98.486,78.4995 98.558,78.3125 98.626,78.1245 L99.66,77.0905 L100.456,77.3025 C100.296,77.9035 100.097,78.5025 99.864,79.0865 C99.842,79.1435 99.819,79.1985 99.796,79.2545" id="Fill-322" fill="#0073AA"></path>
        <path d="M132.400456,98.8405 L123.193456,98.8405 L123.193456,98.7865 L79.1894564,98.8175 L79.1124564,98.6885 C79.0314564,98.4945 78.9954564,98.2915 79.0004564,98.0905 L132.646456,98.0905 L132.650456,98.7755 L132.400456,98.7775 L132.400456,98.8405" id="Fill-323" fill="#0073AA"></path>
        <path d="M99.9627403,91.2652403 L132.17474,91.2652403 L132.17474,59.0532403 L99.9627403,91.2652403 Z M140.03174,99.1222403 L82.7137403,99.1222403 C82.0787403,99.1222403 81.7617403,98.3552403 82.2097403,97.9062403 L138.81674,41.3002403 C139.26474,40.8522403 140.03174,41.1692403 140.03174,41.8042403 L140.03174,99.1222403 L140.03174,99.1222403 Z" id="Fill-324" fill="#E7F7FF"></path>
        <path d="M102.522778,90.2654277 L132.173778,90.2654277 L132.173778,60.6134277 L102.522778,90.2654277 Z M133.673778,91.7654277 L98.901778,91.7654277 L133.673778,56.9924277 L133.673778,91.7654277 Z M140.031778,41.5534277 L83.489778,98.1864277 L140.031778,98.1234277 L140.031778,41.5534277 Z M141.531778,99.6224277 L83.462778,99.6224277 C82.868778,99.6224277 82.339778,99.2684277 82.112778,98.7204277 C81.884778,98.1724277 82.008778,97.5474277 82.427778,97.1274277 L139.034778,40.5204277 C139.453778,40.1004277 140.079778,39.9744277 140.627778,40.2034277 C141.176778,40.4294277 141.531778,40.9604277 141.531778,41.5534277 L141.531778,99.6224277 L141.531778,99.6224277 Z" id="Fill-325" fill="#0073AA"></path>
        <polygon id="Fill-326" fill="#0073AA" points="90 98.9135 91.5 98.9135 91.5 95.0905 90 95.0905"></polygon>
        <polygon id="Fill-327" fill="#0073AA" points="96 98.9135 97.5 98.9135 97.5 95.0905 96 95.0905"></polygon>
        <polygon id="Fill-328" fill="#0073AA" points="103 98.9135 104.5 98.9135 104.5 95.0905 103 95.0905"></polygon>
        <polygon id="Fill-329" fill="#0073AA" points="109 98.9135 110.5 98.9135 110.5 95.0905 109 95.0905"></polygon>
        <polygon id="Fill-330" fill="#0073AA" points="115 98.9135 116.5 98.9135 116.5 95.0905 115 95.0905"></polygon>
        <polygon id="Fill-331" fill="#0073AA" points="121 98.9135 122.5 98.9135 122.5 95.0905 121 95.0905"></polygon>
        <polygon id="Fill-332" fill="#0073AA" points="128 98.9135 129.5 98.9135 129.5 95.0905 128 95.0905"></polygon>
        <polygon id="Fill-333" fill="#0073AA" points="134 98.9135 135.5 98.9135 135.5 95.0905 134 95.0905"></polygon>
        <polygon id="Fill-334" fill="#0073AA" points="137 92.5905 140.823 92.5905 140.823 91.0905 137 91.0905"></polygon>
        <polygon id="Fill-335" fill="#0073AA" points="137 86.5905 140.823 86.5905 140.823 85.0905 137 85.0905"></polygon>
        <polygon id="Fill-336" fill="#0073AA" points="137 79.5905 140.823 79.5905 140.823 78.0905 137 78.0905"></polygon>
        <polygon id="Fill-337" fill="#0073AA" points="137 73.5905 140.823 73.5905 140.823 72.0905 137 72.0905"></polygon>
        <polygon id="Fill-338" fill="#0073AA" points="137 67.5905 140.823 67.5905 140.823 66.0905 137 66.0905"></polygon>
        <polygon id="Fill-339" fill="#0073AA" points="137 61.5905 140.823 61.5905 140.823 60.0905 137 60.0905"></polygon>
        <polygon id="Fill-340" fill="#0073AA" points="137 54.5905 140.823 54.5905 140.823 53.0905 137 53.0905"></polygon>
        <polygon id="Fill-341" fill="#0073AA" points="137 48.5905 140.823 48.5905 140.823 47.0905 137 47.0905"></polygon>
        <path d="M22.578,98.8455 L26.813,98.8455 C27.132,98.8455 27.391,98.5865 27.391,98.2675 L27.391,37.2565 L27.338,37.0145 L25.22,32.4265 C25.013,31.9785 24.377,31.9785 24.171,32.4265 L22.053,37.0145 L22,37.2565 L22,98.2675 C22,98.5865 22.258,98.8455 22.578,98.8455" id="Fill-342" fill="#FFFFFF"></path>
        <polygon id="Fill-343" fill="#62A6CF" points="22 92.8925 27.391 92.8925 27.391 39.0905 22 39.0905"></polygon>
        <path d="M22.5,98.1695 L26.39,98.1695 L26.39,37.3685 L24.445,33.1535 L22.5,37.3685 L22.5,98.1695 Z M27.89,99.6695 L21,99.6695 L21,37.0385 L23.453,31.7255 C23.633,31.3345 24.014,31.0905 24.446,31.0905 C24.877,31.0905 25.258,31.3345 25.438,31.7255 L27.89,37.0385 L27.89,99.6695 L27.89,99.6695 Z" id="Fill-344" fill="#0073AA"></path>
        <polygon id="Fill-345" fill="#0073AA" points="22 39.5905 27.577 39.5905 27.577 38.0905 22 38.0905"></polygon>
        <polygon id="Fill-346" fill="#0073AA" points="22 93.5905 28.195 93.5905 28.195 92.0905 22 92.0905"></polygon>
    </g>
</svg>



