<svg id="icon-plugins" width="100%" height="100%" viewBox="0 0 179 95" version="1.1" xmlns="http://www.w3.org/2000/svg" xmlns:xlink="http://www.w3.org/1999/xlink">
    <!-- Generator: Sketch 44.1 (41455) - http://www.bohemiancoding.com/sketch -->
    <desc>Created with Sketch.</desc>

    <g id="Page-1" stroke="none" stroke-width="1" fill="none" fill-rule="evenodd">
        <path d="M156.632,94.094 L156.632,20.501 C156.632,18.283 155.034,16.485 153.064,16.485 L100.33,16.485 C98.36,16.485 96.762,18.283 96.762,20.501 L96.762,94.094 L156.632,94.094" id="Fill-183" fill="#FFFFFF"></path>
        <path d="M96.762,19.486 C96.762,17.828 98.105,16.485 99.763,16.485 L153.631,16.485 C155.288,16.485 156.632,17.828 156.632,19.486 L156.632,25.734 L96.762,25.734 L96.762,19.486 Z" id="Fill-184" fill="#FFFFFF"></path>
        <polygon id="Fill-185" fill="#0073AA" points="97.073 26.647 156.632 26.647 156.632 25.147 97.073 25.147"></polygon>
        <polygon id="Fill-186" fill="#0073AA" points="103.638 22.368 105.036 22.368 105.036 20.868 103.638 20.868"></polygon>
        <polygon id="Fill-187" fill="#0073AA" points="107.687 22.368 109.086 22.368 109.086 20.868 107.687 20.868"></polygon>
        <polygon id="Fill-188" fill="#0073AA" points="111.738 22.368 113.136 22.368 113.136 20.868 111.738 20.868"></polygon>
        <polygon id="Fill-189" fill="#E7F7FF" points="104.782 50.091 148.611 50.091 148.611 32.803 104.782 32.803"></polygon>
        <polygon id="Fill-190" fill="#9CC9E1" points="104.787 78.355 118.113 78.355 118.113 61.068 104.787 61.068"></polygon>
        <polygon id="Fill-191" fill="#D1E8F0" points="120.038 78.355 133.364 78.355 133.364 61.068 120.038 61.068"></polygon>
        <path d="M157.382,48.843 L155.882,48.843 L155.882,20.501 C155.882,18.7 154.618,17.235 153.064,17.235 L100.33,17.235 C98.776,17.235 97.512,18.7 97.512,20.501 L97.512,34.594 L96.012,34.594 L96.012,20.501 C96.012,17.873 97.949,15.735 100.33,15.735 L153.064,15.735 C155.445,15.735 157.382,17.873 157.382,20.501 L157.382,48.843" id="Fill-194" fill="#0073AA"></path>
        <polygon id="Fill-195" fill="#0073AA" points="155.882 94.094 157.382 94.094 157.382 68.271 155.882 68.271"></polygon>
        <path d="M81.917,3.637 L77.643,3.637 C77.229,3.637 76.893,3.301 76.893,2.887 C76.893,2.473 77.229,2.137 77.643,2.137 L81.917,2.137 C82.331,2.137 82.667,2.473 82.667,2.887 C82.667,3.301 82.331,3.637 81.917,3.637" id="Fill-196" fill="#0073AA"></path>
        <path d="M79.78,5.774 C79.366,5.774 79.03,5.439 79.03,5.024 L79.03,0.75 C79.03,0.336 79.366,0 79.78,0 C80.194,0 80.53,0.336 80.53,0.75 L80.53,5.024 C80.53,5.439 80.194,5.774 79.78,5.774" id="Fill-197" fill="#0073AA"></path>
        <path d="M8.165,57.95 L3.891,57.95 C3.477,57.95 3.141,57.614 3.141,57.2 C3.141,56.786 3.477,56.45 3.891,56.45 L8.165,56.45 C8.579,56.45 8.915,56.786 8.915,57.2 C8.915,57.614 8.579,57.95 8.165,57.95" id="Fill-198" fill="#0073AA"></path>
        <path d="M6.028,60.087 C5.614,60.087 5.278,59.751 5.278,59.337 L5.278,55.063 C5.278,54.648 5.614,54.313 6.028,54.313 C6.442,54.313 6.778,54.648 6.778,55.063 L6.778,59.337 C6.778,59.751 6.442,60.087 6.028,60.087" id="Fill-199" fill="#0073AA"></path>
        <path d="M167.204,14.301 C167.013,14.301 166.821,14.228 166.674,14.081 C166.381,13.788 166.381,13.314 166.674,13.021 L169.696,9.999 C169.989,9.706 170.464,9.706 170.757,9.999 C171.05,10.292 171.05,10.767 170.757,11.06 L167.735,14.081 C167.588,14.228 167.396,14.301 167.204,14.301" id="Fill-200" fill="#0073AA"></path>
        <path d="M170.226,14.301 C170.035,14.301 169.843,14.228 169.696,14.081 L166.674,11.06 C166.381,10.767 166.381,10.292 166.674,9.999 C166.967,9.706 167.442,9.706 167.735,9.999 L170.757,13.021 C171.05,13.314 171.05,13.788 170.757,14.081 C170.61,14.228 170.418,14.301 170.226,14.301" id="Fill-201" fill="#0073AA"></path>
        <polygon id="Fill-204" fill="#0073AA" points="21.566 3.637 72.286 3.637 72.286 2.137 21.566 2.137"></polygon>
        <polygon id="Fill-206" fill="#0073AA" points="0 40.018 25.157 40.018 25.157 38.518 0 38.518"></polygon>
        <path d="M8.698,32.416 C8.698,33.16 8.095,33.763 7.351,33.763 C6.608,33.763 6.005,33.16 6.005,32.416 C6.005,31.672 6.608,31.069 7.351,31.069 C8.095,31.069 8.698,31.672 8.698,32.416" id="Fill-210" fill="#0073AA"></path>
        <path d="M117.815,2.887 C117.815,3.631 117.212,4.234 116.468,4.234 C115.725,4.234 115.122,3.631 115.122,2.887 C115.122,2.143 115.725,1.54 116.468,1.54 C117.212,1.54 117.815,2.143 117.815,2.887" id="Fill-211" fill="#0073AA"></path>
        <path d="M172.52,56.45 C172.52,57.194 171.917,57.797 171.173,57.797 C170.43,57.797 169.827,57.194 169.827,56.45 C169.827,55.707 170.43,55.104 171.173,55.104 C171.917,55.104 172.52,55.707 172.52,56.45" id="Fill-212" fill="#0073AA"></path>
        <path d="M38.479,94.094 L34.696,94.094 C34.411,94.094 34.18,93.863 34.18,93.578 L34.18,39.087 L34.227,38.871 L36.119,34.773 C36.303,34.373 36.872,34.373 37.056,34.773 L38.947,38.871 L38.995,39.087 L38.995,93.578 C38.995,93.863 38.764,94.094 38.479,94.094" id="Fill-214" fill="#FFFFFF"></path>
        <polygon id="Fill-215" fill="#ADDDF8" points="34.18 88.878 38.995 88.878 38.995 40.826 33.4855957 40.826"></polygon>
        <path d="M38.245,94.094 L38.245,39.139 L36.588,35.548 L34.93,39.139 L34.93,58.3605957 L33.43,58.3605957 L33.43,38.809 L35.627,34.048 C35.802,33.669 36.17,33.434 36.588,33.434 C37.005,33.434 37.373,33.669 37.548,34.048 L39.745,38.809 L39.745,94.094 L38.245,94.094 Z" id="Fill-216" fill="#0073AA"></path>
        <polygon id="Fill-217" fill="#0073AA" points="33.43 93.919 34.93 93.919 34.93 74.236 33.43 74.236"></polygon>
        <polygon id="Fill-218" fill="#0073AA" points="34.014 41.575 38.995 41.575 38.995 40.075 34.014 40.075"></polygon>
        <path d="M47.926,94.182 L47.926,22 L42.8954316,22 C42.5364316,22 42.2454316,22.325 42.2454316,22.728 L42.2454316,93.454 C42.2454316,93.856 42.5364316,94.182 42.8954316,94.182 L47.926,94.182 Z" id="Fill-220" fill="#E7F7FF"></path>
        <path d="M43.451,93.302 L41.951,93.302 L41.951,22.703 C41.951,21.853 42.643,21.161 43.493,21.161 L53.255,21.161 C54.105,21.161 54.797,21.853 54.797,22.703 L54.797,34.302 L53.297,34.302 L53.297,22.703 L43.493,22.661 L43.451,93.302" id="Fill-221" fill="#0073AA"></path>
        <polygon id="Fill-223" fill="#0073AA" points="42.701 81.363 47.926 81.363 47.926 79.863 42.701 79.863"></polygon>
        <polygon id="Fill-224" fill="#0073AA" points="42.701 73.772 47.926 73.772 47.926 72.272 42.701 72.272"></polygon>
        <polygon id="Fill-225" fill="#0073AA" points="42.701 66.182 47.926 66.182 47.926 64.682 42.701 64.682"></polygon>
        <polygon id="Fill-226" fill="#0073AA" points="42.701 58.591 47.926 58.591 47.926 57.091 42.701 57.091"></polygon>
        <polygon id="Fill-227" fill="#0073AA" points="42.701 51.001 47.926 51.001 47.926 49.501 42.701 49.501"></polygon>
        <polygon id="Fill-228" fill="#0073AA" points="42.701 43.41 47.926 43.41 47.926 41.91 42.701 41.91"></polygon>
        <polygon id="Fill-229" fill="#0073AA" points="42.701 35.819 47.926 35.819 47.926 34.319 42.701 34.319"></polygon>
        <polygon id="Fill-230" fill="#0073AA" points="42.701 28.34 47.926 28.34 47.926 26.84 42.701 26.84"></polygon>
        <path d="M123.044,91.052 L48.836,91.052 C48.286,91.052 47.836,90.602 47.836,90.052 L47.836,37.275 C47.836,36.725 48.286,36.275 48.836,36.275 L123.044,36.275 C123.594,36.275 124.044,36.725 124.044,37.275 L124.044,90.052 C124.044,90.602 123.594,91.052 123.044,91.052" id="Fill-231" fill="#8AC4E6"></path>
        <polygon id="Fill-232" fill="#0073AA" points="102.77 37.025 108.033 37.025 108.033 35.525 102.77 35.525"></polygon>
        <path d="M122.151,91.803 L49.73,91.803 C48.272,91.803 47.086,90.617 47.086,89.159 L47.086,38.169 C47.086,36.711 48.272,35.525 49.73,35.525 L101.397,35.525 L101.397,37.025 L49.73,37.025 C49.099,37.025 48.586,37.538 48.586,38.169 L48.586,89.159 C48.586,89.79 49.099,90.303 49.73,90.303 L122.151,90.303 C122.781,90.303 123.294,89.79 123.294,89.159 L124.794,89.159 C124.794,90.617 123.608,91.803 122.151,91.803" id="Fill-233" fill="#0073AA"></path>
        <polygon id="Fill-234" fill="#0073AA" points="109.752 37.025 119.93 37.025 119.93 35.525 109.752 35.525"></polygon>
        <polygon id="Fill-235" fill="#FFFFFF" points="51.537 85.036 119.93 85.036 119.93 40.585 51.537 40.585"></polygon>
        <path d="M122.712,94.094 L48.328,94.094 C46.542,94.094 45.019,92.8 44.73,91.038 L44.2,87.806 L78.676,87.806 L79.995,89.7 L89.522,89.7 L90.948,87.806 L127.267,87.806 L126.806,90.617 C126.477,92.622 124.744,94.094 122.712,94.094" id="Fill-236" fill="#FFFFFF"></path>
        <path d="M45.083,88.557 L45.47,90.917 C45.701,92.323 46.903,93.344 48.328,93.344 L122.712,93.344 C124.385,93.344 125.795,92.147 126.065,90.496 L126.384,88.557 L91.322,88.557 L89.895,90.45 L79.604,90.45 L78.285,88.557 L45.083,88.557 M122.712,94.844 L48.328,94.844 C46.164,94.844 44.34,93.294 43.99,91.159 L43.317,87.057 L79.068,87.057 L80.387,88.95 L89.147,88.95 L90.574,87.057 L128.149,87.057 L127.546,90.738 C127.156,93.117 125.123,94.844 122.712,94.844" id="Fill-237" fill="#0073AA"></path>
        <polyline id="Fill-239" fill="#B4D7E7" points="128.149 87.057 124.044 87.057 124.044 78.355 124.044 87.056 128.149 87.056 128.149 87.057"></polyline>
        <polyline id="Fill-241" fill="#0073AA" points="119.93 37.025 119.627 37.025 119.144 35.525 119.93 35.525 119.93 37.025"></polyline>
        <polygon id="Fill-242" fill="#B4D7E7" points="119.821 85.036 119.93 85.036 119.93 45.915 119.821 45.915"></polygon>
        <path d="M125.308,94.094 L119.821,94.094 L119.821,93.344 L122.712,93.344 C124.385,93.344 125.795,92.147 126.065,90.496 L126.384,88.557 L119.821,88.557 L119.821,87.057 L128.149,87.057 L127.546,90.738 C127.31,92.177 126.467,93.37 125.308,94.094" id="Fill-243" fill="#0073AA"></path>
        <path d="M128.529,47.577 L128.569,47.583 L131.29,47.591 L135.421,35.076 L129.776,25.121 L128.894,25.121 L128.811,34.648 C129.013,34.738 129.735,35.046 129.899,35.209 C130.612,35.919 130.614,37.073 129.905,37.785 C129.196,38.496 128.041,38.499 127.329,37.788 C126.616,37.079 126.615,35.925 127.324,35.213 C127.478,35.06 128.022,34.709 128.208,34.623 L128.428,25.121 L127.56,25.121 L121.77,35.023 L125.808,47.568 L128.529,47.577" id="Fill-244" fill="#FFFFFF"></path>
        <path d="M128.484,35.324 C128.323,35.411 127.943,35.66 127.848,35.749 C127.653,35.944 127.542,36.214 127.543,36.5 C127.543,36.786 127.655,37.055 127.857,37.257 C128.06,37.459 128.329,37.57 128.615,37.57 L128.617,37.57 C128.903,37.569 129.172,37.458 129.373,37.256 C129.789,36.837 129.788,36.157 129.369,35.74 C129.348,35.729 129.171,35.624 128.564,35.358 L128.484,35.324 Z M128.625,46.833 L130.748,46.84 L134.605,35.157 L129.633,26.388 L129.566,34.165 C130.047,34.39 130.282,34.532 130.428,34.677 C131.432,35.678 131.436,37.309 130.436,38.314 C129.951,38.801 129.306,39.068 128.619,39.07 L128.615,39.07 C127.929,39.07 127.285,38.804 126.799,38.319 C126.313,37.835 126.044,37.19 126.043,36.503 C126.042,35.816 126.308,35.17 126.792,34.684 C126.936,34.541 127.217,34.345 127.468,34.186 L127.647,26.458 L122.587,35.111 L126.354,46.82 L128.625,46.833 Z M131.831,48.344 L125.261,48.316 L120.954,34.934 L127.13,24.371 L130.213,24.371 L136.238,34.995 L131.831,48.344 L131.831,48.344 Z" id="Fill-245" fill="#0073AA"></path>
        <polygon id="Fill-246" fill="#E7F7FF" points="122.571 94.094 134.621 94.094 134.621 46.665 122.571 46.665"></polygon>
        <polygon id="Fill-247" fill="#8AC4E6" points="128.596 94.094 134.467 94.094 134.467 46.665 128.596 46.665"></polygon>
        <polygon id="Fill-248" fill="#0073AA" points="127.846 34.623 129.346 34.623 129.346 25.121 127.846 25.121"></polygon>
        <path d="M128.596,35.222 C127.836,35.222 127.219,35.84 127.219,36.599 C127.219,37.358 127.836,37.976 128.596,37.976 C129.355,37.976 129.972,37.358 129.972,36.599 C129.972,35.84 129.355,35.222 128.596,35.222 Z M128.596,39.476 C127.009,39.476 125.719,38.185 125.719,36.599 C125.719,35.013 127.009,33.722 128.596,33.722 C130.182,33.722 131.472,35.013 131.472,36.599 C131.472,38.185 130.182,39.476 128.596,39.476 L128.596,39.476 Z" id="Fill-249" fill="#0073AA"></path>
        <polygon id="Fill-250" fill="#0073AA" points="133.87 94.094 135.37 94.094 135.37 79.333 133.87 79.333"></polygon>
        <polyline id="Fill-251" fill="#0073AA" points="123.321 94.094 121.821 94.094 121.821 45.915 135.37 45.915 135.37 49.952 133.87 49.952 133.87 47.415 123.321 47.415 123.321 94.094"></polyline>
        <path d="M147.043,49.952 L150.585,49.952 L161.415,52.531 C162.41,52.768 163.112,53.657 163.112,54.679 L163.112,55.356 L147.043,55.356 L147.043,49.952" id="Fill-252" fill="#E7F7FF"></path>
        <path d="M147.043,67.248 L150.585,67.248 L161.415,64.668 C162.41,64.432 163.112,63.543 163.112,62.521 L163.112,61.843 L147.043,61.843 L147.043,67.248" id="Fill-253" fill="#E7F7FF"></path>
        <path d="M147.793,54.607 L162.36,54.607 C162.328,53.96 161.877,53.412 161.241,53.261 L150.497,50.702 L147.793,50.702 L147.793,54.607 Z M163.862,56.107 L146.293,56.107 L146.293,49.202 L150.759,49.223 L161.589,51.802 C162.927,52.121 163.862,53.304 163.862,54.679 L163.862,56.107 L163.862,56.107 Z" id="Fill-254" fill="#0073AA"></path>
        <path d="M147.793,66.498 L150.497,66.498 L161.242,63.939 C161.878,63.787 162.328,63.239 162.36,62.593 L147.793,62.593 L147.793,66.498 Z M150.673,67.998 L146.293,67.998 L146.293,61.093 L163.862,61.093 L163.862,62.521 C163.862,63.897 162.927,65.079 161.589,65.397 L150.673,67.998 L150.673,67.998 Z" id="Fill-255" fill="#0073AA"></path>
        <path d="M138.74,60.795 L136.212,60.795 L128.485,62.636 C127.776,62.805 127.275,63.439 127.275,64.168 L127.275,64.651 L138.74,64.651 L138.74,60.795" id="Fill-256" fill="#ADDDF8"></path>
        <path d="M138.74,55.514 L136.212,55.514 L128.485,53.674 C127.776,53.505 127.275,52.871 127.275,52.141 L127.275,51.658 L138.74,51.658 L138.74,55.514" id="Fill-257" fill="#ADDDF8"></path>
        <path d="M128.069,63.901 L137.99,63.901 L137.99,61.545 L136.3,61.545 L128.659,63.365 C128.376,63.433 128.158,63.639 128.069,63.901 Z M139.49,65.401 L126.525,65.401 L126.525,64.168 C126.525,63.087 127.26,62.156 128.311,61.906 L136.212,60.045 L139.49,60.045 L139.49,65.401 L139.49,65.401 Z" id="Fill-258" fill="#0073AA"></path>
        <path d="M136.3,54.764 L137.99,54.764 L137.99,52.408 L128.069,52.408 C128.158,52.671 128.376,52.877 128.659,52.944 L136.3,54.764 Z M139.49,56.264 L136.038,56.243 L128.311,54.403 C127.26,54.153 126.525,53.223 126.525,52.142 L126.525,50.908 L139.49,50.908 L139.49,56.264 L139.49,56.264 Z" id="Fill-259" fill="#0073AA"></path>
        <polygon id="Fill-260" fill="#FFFFFF" points="138.188 94.094 147.043 94.094 147.043 49.952 138.188 49.952"></polygon>
        <polyline id="Fill-261" fill="#0073AA" points="147.793 94.094 146.293 94.094 146.293 50.702 138.938 50.702 138.938 94.094 137.438 94.094 137.438 49.202 147.793 49.202 147.793 94.094"></polyline>
        <polygon id="Fill-262" fill="#0073AA" points="138.188 55.509 142.201 55.509 142.201 54.009 138.188 54.009"></polygon>
        <polygon id="Fill-263" fill="#0073AA" points="138.188 59.226 142.201 59.226 142.201 57.726 138.188 57.726"></polygon>
        <polygon id="Fill-264" fill="#0073AA" points="138.188 62.941 142.201 62.941 142.201 61.441 138.188 61.441"></polygon>
        <polygon id="Fill-265" fill="#0073AA" points="138.188 85.237 142.201 85.237 142.201 83.737 138.188 83.737"></polygon>
        <polygon id="Fill-266" fill="#0073AA" points="138.188 88.953 142.201 88.953 142.201 87.453 138.188 87.453"></polygon>
        <polygon id="Fill-267" fill="#0073AA" points="138.188 92.669 142.201 92.669 142.201 91.169 138.188 91.169"></polygon>
        <polygon id="Fill-268" fill="#8AC4E6" points="136.16 82.149 147.558 82.149 147.558 67.346 136.16 67.346"></polygon>
        <path d="M136.91,81.398 L146.808,81.398 L146.808,68.096 L136.91,68.096 L136.91,81.398 Z M135.41,82.898 L148.308,82.898 L148.308,66.596 L135.41,66.596 L135.41,82.898 Z" id="Fill-269" fill="#0073AA"></path>
        <polygon id="Fill-270" fill="#D1E8F0" points="132.496 77.619 135.003 77.619 135.003 71.657 132.496 71.657"></polygon>
        <path d="M133.246,76.869 L134.253,76.869 L134.253,72.406 L133.246,72.406 L133.246,76.869 Z M131.746,78.369 L135.753,78.369 L135.753,70.906 L131.746,70.906 L131.746,78.369 Z" id="Fill-271" fill="#0073AA"></path>
        <path d="M160.608,57.2 C159.905,57.2 159.333,57.772 159.333,58.476 C159.333,59.179 159.905,59.75 160.608,59.75 C161.311,59.75 161.883,59.179 161.883,58.476 C161.883,57.772 161.311,57.2 160.608,57.2 Z M160.608,61.25 C159.077,61.25 157.833,60.006 157.833,58.476 C157.833,56.945 159.077,55.7 160.608,55.7 C162.138,55.7 163.383,56.945 163.383,58.476 C163.383,60.006 162.138,61.25 160.608,61.25 L160.608,61.25 Z" id="Fill-272" fill="#0073AA"></path>
        <path d="M25.87,94.094 L24.269,94.094 C23.719,94.094 23.269,93.644 23.269,93.094 L23.269,89.579 C23.269,89.029 23.719,88.579 24.269,88.579 L25.87,88.579 C26.42,88.579 26.87,89.029 26.87,89.579 L26.87,93.094 C26.87,93.644 26.42,94.094 25.87,94.094" id="Fill-273" fill="#62A6CF"></path>
        <path d="M24.269,89.329 C24.133,89.329 24.019,89.443 24.019,89.579 L24.019,93.094 C24.019,93.229 24.133,93.344 24.269,93.344 L25.87,93.344 C26.006,93.344 26.12,93.229 26.12,93.094 L26.12,89.579 C26.12,89.443 26.006,89.329 25.87,89.329 L24.269,89.329 Z M25.87,94.844 L24.269,94.844 C23.304,94.844 22.519,94.059 22.519,93.094 L22.519,89.579 C22.519,88.614 23.304,87.829 24.269,87.829 L25.87,87.829 C26.835,87.829 27.62,88.614 27.62,89.579 L27.62,93.094 C27.62,94.059 26.835,94.844 25.87,94.844 L25.87,94.844 Z" id="Fill-274" fill="#0073AA"></path>
        <path d="M37.189,66.18 C37.189,59.535 31.802,54.147 25.157,54.147 C18.511,54.147 13.125,59.535 13.125,66.18 C13.125,70.638 15.556,74.522 19.159,76.6 L19.159,88.464 L20.865,91.696 L29.13,91.696 L31.154,88.464 L31.154,76.6 C34.758,74.522 37.189,70.638 37.189,66.18" id="Fill-275" fill="#FFFFFF"></path>
        <polyline id="Fill-276" fill="#ADDDF8" points="19.159 79.913 19.159 89.173 20.865 91.696 29.13 91.696 31.154 89.173 31.154 79.913 19.159 79.913"></polyline>
        <polyline id="Fill-277" fill="#62A6CF" points="31.154 88.464 29.13 91.696 20.865 91.696 19.159 88.464 31.154 88.464"></polyline>
        <path d="M29.546,92.446 L20.412,92.446 L18.41,88.649 L18.41,77.025 C14.676,74.697 12.375,70.581 12.375,66.18 C12.375,63.169 13.442,60.245 15.379,57.946 L16.526,58.913 C14.816,60.941 13.875,63.522 13.875,66.18 C13.875,70.192 16.043,73.937 19.535,75.951 L19.91,76.167 L19.91,88.278 L21.317,90.946 L28.715,90.946 L30.404,88.248 L30.404,76.167 L30.779,75.951 C34.27,73.937 36.439,70.192 36.439,66.18 C36.439,59.959 31.378,54.897 25.157,54.897 C23.691,54.897 22.265,55.174 20.92,55.72 L20.356,54.329 C21.882,53.711 23.497,53.397 25.157,53.397 C32.205,53.397 37.939,59.132 37.939,66.18 C37.939,70.581 35.638,74.697 31.904,77.025 L31.904,88.68 L29.546,92.446" id="Fill-278" fill="#0073AA"></path>
        <path d="M17.682,57.728 L16.617,56.673 C17.379,55.902 17.772,55.677 18.556,55.228 L18.784,55.098 L19.533,56.397 L19.301,56.53 C18.554,56.958 18.302,57.103 17.682,57.728" id="Fill-279" fill="#0073AA"></path>
        <polygon id="Fill-280" fill="#0073AA" points="17.35 81.029 32.964 81.029 32.964 79.529 17.35 79.529"></polygon>
        <polygon id="Fill-281" fill="#0073AA" points="17.35 83.758 32.964 83.758 32.964 82.258 17.35 82.258"></polygon>
        <polygon id="Fill-282" fill="#0073AA" points="17.35 86.485 32.964 86.485 32.964 84.985 17.35 84.985"></polygon>
        <polygon id="Fill-283" fill="#0073AA" points="17.35 89.214 32.964 89.214 32.964 87.714 17.35 87.714"></polygon>
        <path d="M31.488,66.188 C31.488,69.684 28.653,72.519 25.157,72.519 C21.66,72.519 18.826,69.684 18.826,66.188 C18.826,62.691 21.66,59.856 25.157,59.856 C28.653,59.856 31.488,62.691 31.488,66.188" id="Fill-284" fill="#E7F7FF"></path>
        <polygon id="Fill-320" fill="#0073AA" points="7.351 94.844 171.173 94.844 171.173 93.344 7.351 93.344"></polygon>
        <polygon id="Fill-321" fill="#0073AA" points="2.789 94.844 5.528 94.844 5.528 93.344 2.789 93.344"></polygon>
        <polygon id="Fill-322" fill="#0073AA" points="172.736 94.844 178.785 94.844 178.785 93.344 172.736 93.344"></polygon>
    </g>
</svg>