
<svg id="icon-welcome" width="100%" height="100%" viewBox="0 0 166 105" version="1.1" xmlns="http://www.w3.org/2000/svg" xmlns:xlink="http://www.w3.org/1999/xlink">

        <g id="Page-1" stroke="none" stroke-width="1" fill="none" fill-rule="evenodd">
            <g id="Getting-Started">
                <g id="getting-started">
                    <polygon id="Fill-310" fill="#FFFFFF" points="130.588 73.184 139.861 73.184 139.861 67.506 130.588 67.506"></polygon>
                    <path d="M142.664,103.301 L127.943,103.301 L127.943,72.114 C127.943,71.346 128.566,70.723 129.335,70.723 L141.273,70.723 C142.041,70.723 142.664,71.346 142.664,72.114 L142.664,103.301" id="Fill-312" fill="#FFFFFF"></path>
                    <path d="M149.481,94.952 C149.461,95.921 148.66,96.69 147.692,96.671 C146.723,96.652 145.954,95.851 145.973,94.882 C145.992,93.914 146.793,93.144 147.762,93.163 C148.73,93.183 149.5,93.984 149.481,94.952" id="Fill-322" fill="#FFFFFF"></path>
                    <path d="M136.324881,101.023 C135.858427,101.023 135.476088,100.603 135.436155,100.046 C135.341845,98.695 134.442073,97.641 133.295905,97.537 C132.828602,97.494 132.476,97.051 132.476,96.506 L132.476,93.7 L133.750464,93.7 L133.750464,96.094 C135.239888,96.403 136.39965,97.767 136.662189,99.523 L140.749,99.523 L140.749,101.023 L136.324881,101.023 Z" id="Fill-326" fill="#0073AA"></path>
                    <path d="M151.667,103.665 L151.667,100.387 C151.667,100.097 151.902,99.862 152.192,99.862 L164.85,99.862 C165.14,99.862 165.375,100.097 165.375,100.387 L165.375,103.665 L151.667,103.665" id="Fill-327" fill="#FFFFFF"></path>
                    <path d="M155.125,103.665 L153.625,103.665 L153.625,100.612 L141.417,100.612 L141.417,103.665 L139.917,103.665 L139.917,100.387 C139.917,99.684 140.489,99.112 141.192,99.112 L153.85,99.112 C154.553,99.112 155.125,99.684 155.125,100.387 L155.125,103.665" id="Fill-328" fill="#0073AA"></path>
                    <rect id="Rectangle" fill="#E7F7FF" x="141" y="95" width="14" height="4"></rect>
                    <path d="M142.159,98.554 L154.367,98.554 L154.367,95.725 L142.159,95.725 L142.159,98.554 Z M154.728,100.054 L141.798,100.054 C141.17,100.054 140.659,99.542 140.659,98.914 L140.659,95.363 C140.659,94.735 141.17,94.225 141.798,94.225 L154.728,94.225 C155.356,94.225 155.867,94.735 155.867,95.363 L155.867,98.914 C155.867,99.542 155.356,100.054 154.728,100.054 L154.728,100.054 Z" id="Fill-330" fill="#0073AA"></path>
                    <path d="M141.55,93.666 L153.758,93.666 L153.758,90.838 L141.55,90.838 L141.55,93.666 Z M154.119,95.166 L141.188,95.166 C140.56,95.166 140.05,94.655 140.05,94.027 L140.05,90.477 C140.05,89.849 140.56,89.338 141.188,89.338 L154.119,89.338 C154.747,89.338 155.258,89.849 155.258,90.477 L155.258,94.027 C155.258,94.655 154.747,95.166 154.119,95.166 L154.119,95.166 Z" id="Fill-332" fill="#0073AA"></path>
                    <path d="M101.438,7.16 L97.164,7.16 C96.75,7.16 96.414,6.824 96.414,6.41 C96.414,5.996 96.75,5.66 97.164,5.66 L101.438,5.66 C101.852,5.66 102.188,5.996 102.188,6.41 C102.188,6.824 101.852,7.16 101.438,7.16" id="Fill-340" fill="#0073AA"></path>
                    <path d="M99.301,9.297 C98.887,9.297 98.551,8.961 98.551,8.547 L98.551,4.273 C98.551,3.859 98.887,3.523 99.301,3.523 C99.715,3.523 100.051,3.859 100.051,4.273 L100.051,8.547 C100.051,8.961 99.715,9.297 99.301,9.297" id="Fill-341" fill="#0073AA"></path>
                    <path d="M42.733,24.023 L38.459,24.023 C38.045,24.023 37.709,23.688 37.709,23.273 C37.709,22.859 38.045,22.523 38.459,22.523 L42.733,22.523 C43.147,22.523 43.483,22.859 43.483,23.273 C43.483,23.688 43.147,24.023 42.733,24.023" id="Fill-342" fill="#0073AA"></path>
                    <path d="M40.596,26.16 C40.182,26.16 39.846,25.824 39.846,25.41 L39.846,21.136 C39.846,20.722 40.182,20.386 40.596,20.386 C41.01,20.386 41.346,20.722 41.346,21.136 L41.346,25.41 C41.346,25.824 41.01,26.16 40.596,26.16" id="Fill-343" fill="#0073AA"></path>
                    <path d="M152.15,52.938 C151.958,52.938 151.767,52.864 151.62,52.718 C151.327,52.425 151.327,51.95 151.62,51.657 L154.643,48.635 C154.935,48.342 155.41,48.342 155.703,48.635 C155.996,48.928 155.996,49.402 155.703,49.695 L152.681,52.718 C152.534,52.864 152.343,52.938 152.15,52.938" id="Fill-344" fill="#0073AA"></path>
                    <path d="M155.173,52.938 C154.98,52.938 154.789,52.864 154.643,52.718 L151.62,49.695 C151.327,49.402 151.327,48.928 151.62,48.635 C151.913,48.342 152.388,48.342 152.681,48.635 L155.703,51.657 C155.996,51.95 155.996,52.425 155.703,52.718 C155.557,52.864 155.365,52.938 155.173,52.938" id="Fill-345" fill="#0073AA"></path>
                    <path d="M5.332,64.237 C5.14,64.237 4.948,64.164 4.802,64.018 C4.509,63.725 4.509,63.25 4.802,62.957 L7.824,59.935 C8.117,59.642 8.592,59.642 8.885,59.935 C9.178,60.228 9.178,60.702 8.885,60.995 L5.862,64.018 C5.716,64.164 5.524,64.237 5.332,64.237" id="Fill-346" fill="#0073AA"></path>
                    <path d="M8.354,64.237 C8.162,64.237 7.971,64.164 7.824,64.018 L4.802,60.995 C4.509,60.702 4.509,60.228 4.802,59.935 C5.095,59.642 5.569,59.642 5.862,59.935 L8.885,62.957 C9.178,63.25 9.178,63.725 8.885,64.018 C8.738,64.164 8.547,64.237 8.354,64.237" id="Fill-347" fill="#0073AA"></path>
                    <polygon id="Fill-348" fill="#0073AA" points="12.078 49.372 29.474 49.372 29.474 47.872 12.078 47.872"></polygon>
                    <polygon id="Fill-349" fill="#0073AA" points="50.771 7.16 70.439 7.16 70.439 5.66 50.771 5.66"></polygon>
                    <polygon id="Fill-350" fill="#0073AA" points="112.441 51.426 150.247 51.426 150.247 49.926 112.441 49.926"></polygon>
                    <polygon id="Fill-351" fill="#0073AA" points="30.974 49.372 34.544 49.372 34.544 47.872 30.974 47.872"></polygon>
                    <polygon id="Fill-352" fill="#0073AA" points="95.949 13.22 113.346 13.22 113.346 11.72 95.949 11.72"></polygon>
                    <polygon id="Fill-353" fill="#0073AA" points="114.846 13.22 118.416 13.22 118.416 11.72 114.846 11.72"></polygon>
                    <path d="M129.29,35.307 C129.29,36.051 128.687,36.654 127.943,36.654 C127.2,36.654 126.597,36.051 126.597,35.307 C126.597,34.563 127.2,33.96 127.943,33.96 C128.687,33.96 129.29,34.563 129.29,35.307" id="Fill-354" fill="#0073AA"></path>
                    <path d="M60.281,56.195 C60.281,56.939 59.678,57.542 58.934,57.542 C58.19,57.542 57.587,56.939 57.587,56.195 C57.587,55.451 58.19,54.848 58.934,54.848 C59.678,54.848 60.281,55.451 60.281,56.195" id="Fill-355" fill="#0073AA"></path>
                    <path d="M149.201,21.202 C149.201,21.616 148.865,21.952 148.451,21.952 C148.037,21.952 147.701,21.616 147.701,21.202 C147.701,20.787 148.037,20.451 148.451,20.451 C148.865,20.451 149.201,20.787 149.201,21.202" id="Fill-356" fill="#0073AA"></path>
                    <path d="M57.468,1.665 C57.468,2.227 57.013,2.682 56.451,2.682 C55.889,2.682 55.434,2.227 55.434,1.665 C55.434,1.103 55.889,0.648 56.451,0.648 C57.013,0.648 57.468,1.103 57.468,1.665" id="Fill-357" fill="#0073AA"></path>
                    <path d="M122.492,103.665 L47.793,103.665 C43.641,103.665 40.244,100.268 40.244,96.116 L40.244,95.827 C40.244,91.675 43.641,88.278 47.793,88.278 L122.492,88.278 C126.644,88.278 130.041,91.675 130.041,95.827 L130.041,96.116 C130.041,100.268 126.644,103.665 122.492,103.665" id="Fill-358" fill="#FFFFFF"></path>
                    <path d="M70.679,76.533 C70.679,83.02 65.421,88.278 58.934,88.278 C52.448,88.278 47.189,83.02 47.189,76.533 C47.189,70.047 52.448,64.789 58.934,64.789 C65.421,64.789 70.679,70.047 70.679,76.533" id="Fill-359" fill="#FFFFFF"></path>
                    <path d="M50.772,78.312 C50.772,80.879 48.691,82.96 46.124,82.96 C43.556,82.96 41.475,80.879 41.475,78.312 C41.475,75.744 43.556,73.663 46.124,73.663 C48.691,73.663 50.772,75.744 50.772,78.312" id="Fill-360" fill="#FFFFFF"></path>
                    <path d="M48.498,83.603 C48.498,87.387 45.431,90.454 41.648,90.454 C37.865,90.454 34.798,87.387 34.798,83.603 C34.798,79.82 37.865,76.753 41.648,76.753 C45.431,76.753 48.498,79.82 48.498,83.603" id="Fill-361" fill="#FFFFFF"></path>
                    <path d="M49.505,94.404 C49.505,99.519 45.359,103.665 40.244,103.665 C35.13,103.665 30.983,99.519 30.983,94.404 C30.983,89.289 35.13,85.143 40.244,85.143 C45.359,85.143 49.505,89.289 49.505,94.404" id="Fill-362" fill="#FFFFFF"></path>
                    <path d="M40.244,104.415 C34.725,104.415 30.233,99.924 30.233,94.404 C30.233,91.145 31.828,88.08 34.499,86.205 L35.36,87.434 C33.089,89.027 31.733,91.633 31.733,94.404 C31.733,99.097 35.552,102.915 40.244,102.915 L40.244,104.415" id="Fill-363" fill="#0073AA"></path>
                    <path d="M73.306,85.898 C73.306,88.045 71.566,89.785 69.42,89.785 C67.273,89.785 65.533,88.045 65.533,85.898 C65.533,83.752 67.273,82.011 69.42,82.011 C71.566,82.011 73.306,83.752 73.306,85.898" id="Fill-364" fill="#FFFFFF"></path>
                    <path d="M120.686,76.042 C120.686,81.948 115.899,86.735 109.993,86.735 C104.088,86.735 99.301,81.948 99.301,76.042 C99.301,70.137 104.088,65.349 109.993,65.349 C115.899,65.349 120.686,70.137 120.686,76.042" id="Fill-365" fill="#FFFFFF"></path>
                    <path d="M122.552,82.011 C122.21,85.8 119.49,88.852 115.712,88.852 C111.934,88.852 108.871,85.789 108.871,82.011 C108.871,78.233 111.934,75.171 115.712,75.171 C119.49,75.171 122.892,78.249 122.552,82.011" id="Fill-366" fill="#FFFFFF"></path>
                    <path d="M115.7,86.735 C115.357,90.524 112.637,93.576 108.859,93.576 C105.081,93.576 102.019,90.513 102.019,86.735 C102.019,82.957 105.081,79.895 108.859,79.895 C112.637,79.895 116.04,82.973 115.7,86.735" id="Fill-367" fill="#FFFFFF"></path>
                    <path d="M68.646,86.824 C67.993,90.612 62.806,93.664 55.601,93.664 C48.397,93.664 42.556,90.602 42.556,86.824 C42.556,83.046 48.397,79.983 55.601,79.983 C62.806,79.983 69.295,83.061 68.646,86.824" id="Fill-368" fill="#FFFFFF"></path>
                    <path d="M136.204,83.664 C135.704,89.203 131.727,93.664 126.204,93.664 C120.681,93.664 116.203,89.187 116.203,83.664 C116.203,78.141 120.681,73.663 126.204,73.663 C131.727,73.663 136.702,78.163 136.204,83.664" id="Fill-369" fill="#FFFFFF"></path>
                    <path d="M133.476,94.017 C132.993,99.36 129.156,103.665 123.828,103.665 C118.5,103.665 114.18,99.345 114.18,94.017 C114.18,88.689 118.5,84.369 123.828,84.369 C129.156,84.369 133.956,88.71 133.476,94.017" id="Fill-370" fill="#FFFFFF"></path>
                    <path d="M107.183,83.126 C107.183,86.594 104.371,89.406 100.903,89.406 C97.435,89.406 94.624,86.594 94.624,83.126 C94.624,79.658 97.435,76.847 100.903,76.847 C104.371,76.847 107.183,79.658 107.183,83.126" id="Fill-371" fill="#FFFFFF"></path>
                    <path d="M99.082,88.633 C99.082,90.657 97.441,92.297 95.418,92.297 C93.395,92.297 91.754,90.657 91.754,88.633 C91.754,86.61 93.395,84.969 95.418,84.969 C97.441,84.969 99.082,86.61 99.082,88.633" id="Fill-372" fill="#FFFFFF"></path>
                    <path d="M92.195,88.972 L90.695,88.972 C90.695,86.538 92.676,84.558 95.109,84.558 L95.109,86.058 C93.503,86.058 92.195,87.365 92.195,88.972" id="Fill-373" fill="#0073AA"></path>
                    <path d="M84.029,90.971 C84.029,93.31 80.759,95.207 76.724,95.207 C72.69,95.207 69.42,93.31 69.42,90.971 C69.42,88.632 72.69,86.735 76.724,86.735 C80.759,86.735 84.029,88.632 84.029,90.971" id="Fill-374" fill="#FFFFFF"></path>
                    <path d="M126.407,73.973 C126.407,76.69 121.797,83.938 121.797,80.606 C121.797,77.89 116.879,78.404 116.879,75.688 C116.879,72.971 119.081,70.769 121.797,70.769 C124.514,70.769 126.407,71.257 126.407,73.973" id="Fill-375" fill="#FFFFFF"></path>
                    <path d="M125.598,73.972 C124.924,72.481 123.432,71.519 121.797,71.519 C121.219,71.519 120.657,71.635 120.13,71.865 L119.53,70.49 C120.248,70.178 121.011,70.019 121.797,70.019 C124.019,70.019 126.049,71.328 126.965,73.355 L125.598,73.972" id="Fill-376" fill="#0073AA"></path>
                    <path d="M101.902,84.134 C99.741,81.973 98.551,79.099 98.551,76.042 C98.551,72.984 99.741,70.111 101.902,67.951 C104.063,65.79 106.935,64.6 109.993,64.6 C113.05,64.6 115.924,65.79 118.085,67.951 C120.246,70.112 121.436,72.985 121.436,76.042 L119.936,76.042 C119.936,73.387 118.902,70.89 117.024,69.012 C115.146,67.134 112.649,66.1 109.993,66.1 C107.337,66.1 104.84,67.134 102.963,69.012 C101.085,70.889 100.051,73.386 100.051,76.042 C100.051,78.698 101.085,81.195 102.963,83.073 L101.902,84.134" id="Fill-377" fill="#0073AA"></path>
                    <polygon id="Fill-378" fill="#FFFFFF" points="77.451 51.464 89.899 51.464 89.899 46.22 77.451 46.22"></polygon>
                    <path d="M78.201,50.714 L89.148,50.714 L89.148,46.97 L78.201,46.97 L78.201,50.714 Z M76.701,52.214 L90.648,52.214 L90.648,45.47 L76.701,45.47 L76.701,52.214 Z" id="Fill-379" fill="#0073AA"></path>
                    <path d="M64.551,46.294 L76.328,46.294 L76.328,20.645 L71.981,26.524 C70.731,28.215 69.261,29.72 67.751,31.184 C65.729,33.146 64.551,35.865 64.551,38.748 L64.551,46.294" id="Fill-380" fill="#ADDDF8"></path>
                    <path d="M75.413,45.544 L72.563,45.544 L72.563,26.999 C72.57,26.989 72.578,26.98 72.585,26.97 L75.413,23.144 L75.413,45.544" id="Fill-381" fill="#8AC4E6"></path>
                    <path d="M102.228,46.785 L90.451,46.785 L90.451,21.136 L94.797,27.015 C96.048,28.706 97.517,30.211 99.027,31.675 C101.05,33.637 102.228,36.356 102.228,39.239 L102.228,46.785" id="Fill-382" fill="#ADDDF8"></path>
                    <polyline id="Fill-383" fill="#A6CFE4" points="94.578 26.718 91.618 22.714 91.618 21.328 94.578 25.331 94.578 26.718"></polyline>
                    <polyline id="Fill-384" fill-opacity="0.35266644" fill="#4B97C6" points="94.578 45.889 91.618 45.889 91.618 22.714 94.578 26.718 94.578 45.889"></polyline>
                    <path d="M65.301,45.544 L75.577,45.544 L75.577,22.922 L72.585,26.97 C71.271,28.745 69.736,30.303 68.274,31.722 C66.385,33.554 65.301,36.115 65.301,38.748 L65.301,45.544 M77.077,47.044 L63.801,47.044 L63.801,38.748 C63.801,35.712 65.051,32.758 67.229,30.645 C68.647,29.27 70.13,27.766 71.379,26.077 L77.077,18.369 L77.077,47.044" id="Fill-385" fill="#0073AA"></path>
                    <path d="M91.201,45.544 L101.477,45.544 L101.477,38.748 C101.477,36.115 100.394,33.555 98.505,31.722 C97.043,30.304 95.509,28.747 94.194,26.969 L91.201,22.921 L91.201,45.544 Z M102.977,47.044 L89.701,47.044 L89.701,18.37 L95.401,26.077 C96.65,27.769 98.133,29.272 99.55,30.646 C101.728,32.759 102.977,35.712 102.977,38.748 L102.977,47.044 L102.977,47.044 Z" id="Fill-386" fill="#0073AA"></path>
                    <path d="M91.618,48.85 L75.413,48.85 L75.413,15.269 C75.413,11.35 77.228,7.653 80.329,5.258 L81.776,4.14 C82.8,3.349 84.23,3.349 85.255,4.14 L86.833,5.36 C89.851,7.691 91.618,11.289 91.618,15.102 L91.618,48.85" id="Fill-387" fill="#FFFFFF"></path>
                    <path d="M79.37,6.274 L81.3,4.784 C82.666,3.728 84.573,3.728 85.939,4.784 L88.045,6.41 L79.37,6.274" id="Fill-388" fill="#0073AA"></path>
                    <path d="M75.413,15.269 C75.413,11.35 77.228,7.653 80.329,5.258 L81.776,4.14 C82.288,3.745 82.902,3.547 83.515,3.547 C84.129,3.547 84.742,3.745 85.255,4.14 C84.742,3.745 84.129,3.547 83.515,3.547 C82.902,3.547 82.288,3.745 81.776,4.14 L80.329,5.258 C77.228,7.653 75.413,11.35 75.413,15.269 M85.296,4.172 L85.255,4.14 L85.296,4.172" id="Fill-389" fill="#AFC9D6"></path>
                    <path d="M78.974,48.85 L75.413,48.85 L75.413,15.269 C75.413,11.35 77.228,7.653 80.329,5.258 L81.776,4.14 C82.288,3.745 82.902,3.547 83.515,3.547 C84.129,3.547 84.742,3.745 85.255,4.14 L85.296,4.172 L85.126,4.303 C84.646,4.096 84.133,3.992 83.62,3.992 C82.801,3.992 81.983,4.256 81.3,4.784 L79.37,6.274 L82.677,6.326 C80.321,8.682 78.974,11.893 78.974,15.269 L78.974,48.85" id="Fill-390" fill="#E7F7FF"></path>
                    <path d="M82.677,6.326 L79.37,6.274 L81.3,4.784 C81.983,4.256 82.801,3.992 83.62,3.992 C84.133,3.992 84.646,4.096 85.126,4.303 L83.89,5.258 C83.461,5.59 83.056,5.947 82.677,6.326" id="Fill-391" fill="#0073AA"></path>
                    <path d="M88.386,22.231 L86.886,22.231 C86.886,20.373 85.374,18.861 83.516,18.861 C81.657,18.861 80.144,20.373 80.144,22.231 L78.644,22.231 C78.644,19.546 80.83,17.361 83.516,17.361 C86.201,17.361 88.386,19.546 88.386,22.231" id="Fill-392" fill="#0073AA"></path>
                    <path d="M76.163,48.1 L90.868,48.1 L90.868,15.103 C90.868,11.547 89.188,8.127 86.374,5.953 L84.797,4.734 C84.041,4.15 82.989,4.15 82.235,4.734 L80.787,5.852 C77.892,8.089 76.163,11.609 76.163,15.269 L76.163,48.1 Z M92.368,49.6 L74.663,49.6 L74.663,15.269 C74.663,11.148 76.609,7.184 79.87,4.664 L81.318,3.547 C82.611,2.547 84.419,2.547 85.714,3.547 L87.291,4.766 C90.471,7.222 92.368,11.086 92.368,15.103 L92.368,49.6 L92.368,49.6 Z" id="Fill-393" fill="#0073AA"></path>
                    <path d="M100.903,90.155 C97.027,90.155 93.874,87.002 93.874,83.126 C93.874,79.936 96.026,77.141 99.107,76.328 L99.49,77.779 C97.066,78.418 95.374,80.616 95.374,83.126 C95.374,86.175 97.854,88.655 100.903,88.655 L100.903,90.155" id="Fill-394" fill="#0073AA"></path>
                    <path d="M65.124,87.39 L64.38,86.087 C67.803,84.131 69.929,80.471 69.929,76.533 C69.929,70.471 64.997,65.539 58.935,65.539 C52.872,65.539 47.939,70.471 47.939,76.533 L46.439,76.533 C46.439,69.644 52.045,64.039 58.935,64.039 C65.824,64.039 71.429,69.644 71.429,76.533 C71.429,81.008 69.013,85.167 65.124,87.39" id="Fill-395" fill="#0073AA"></path>
                    <path d="M44.285,74.873 L43.578,73.551 C44.833,72.879 46.358,72.732 47.716,73.152 L47.274,74.586 C46.293,74.284 45.191,74.389 44.285,74.873" id="Fill-396" fill="#0073AA"></path>
                    <path d="M69.42,90.535 L69.42,89.035 C71.149,89.035 72.557,87.628 72.557,85.898 C72.557,84.169 71.149,82.762 69.42,82.762 L69.42,81.262 C71.977,81.262 74.057,83.342 74.057,85.898 C74.057,88.455 71.977,90.535 69.42,90.535" id="Fill-397" fill="#0073AA"></path>
                    <path d="M99.033,94.918 L71.351,94.918 L79.363,85.898 L79.363,52.557 L87.943,52.557 L87.574,82.994 C87.551,84.824 88.383,86.56 89.823,87.691 L99.033,94.918" id="Fill-398" fill="#FFFFFF"></path>
                    <path d="M92.003,88.408 L91.112,88.408 C88.865,88.386 87.044,86.546 87.044,84.307 L87.044,52.557 L88.544,52.557 L88.544,84.307 C88.544,85.727 89.699,86.894 91.12,86.908 L92.003,86.908 L92.003,88.408" id="Fill-399" fill="#0073AA"></path>
                    <path d="M76.339,87.574 L73.298,87.574 L73.298,86.074 L76.339,86.074 C77.593,86.074 78.613,85.054 78.613,83.8 L78.613,52.557 L80.113,52.557 L80.113,83.8 C80.113,85.881 78.42,87.574 76.339,87.574" id="Fill-400" fill="#0073AA"></path>
                    <path d="M74.85,101.262 C74.842,100.523 74.977,99.794 75.249,99.099 C75.521,98.405 75.919,97.781 76.43,97.243 C76.96,96.687 77.588,96.247 78.298,95.938 C79.008,95.628 79.758,95.467 80.527,95.459 C81.263,95.461 81.996,95.585 82.69,95.857 C83.385,96.132 84.009,96.529 84.546,97.039 L83.513,98.127 C83.116,97.75 82.654,97.456 82.141,97.253 C81.643,97.058 81.12,96.959 80.588,96.959 L80.543,96.959 C79.976,96.965 79.422,97.084 78.897,97.313 C78.373,97.542 77.908,97.866 77.517,98.277 C77.141,98.673 76.847,99.135 76.645,99.648 C76.443,100.162 76.344,100.7 76.35,101.246 L74.85,101.262" id="Fill-401" fill="#0073AA"></path>
                    <path d="M50.021,89.266 C50.014,88.524 50.148,87.797 50.421,87.103 C50.694,86.408 51.092,85.783 51.603,85.246 C52.134,84.689 52.763,84.249 53.472,83.941 C54.18,83.632 54.93,83.471 55.699,83.463 C56.45,83.464 57.17,83.589 57.862,83.861 C58.555,84.134 59.179,84.531 59.718,85.043 L58.685,86.131 C58.286,85.753 57.825,85.459 57.313,85.258 C56.801,85.056 56.251,84.946 55.715,84.963 C55.147,84.969 54.594,85.088 54.07,85.316 C53.546,85.544 53.081,85.868 52.69,86.28 C52.313,86.677 52.019,87.138 51.817,87.651 C51.615,88.165 51.516,88.703 51.521,89.25 L50.021,89.266" id="Fill-402" fill="#0073AA"></path>
                    <path d="M114.568,86.589 L113.164,86.064 C113.355,85.551 113.444,85.012 113.428,84.461 C113.413,83.912 113.293,83.378 113.072,82.874 C112.846,82.356 112.519,81.895 112.102,81.5 C111.686,81.107 111.206,80.808 110.674,80.609 C110.161,80.417 109.619,80.319 109.07,80.345 C108.521,80.359 107.987,80.48 107.483,80.7 L106.882,79.325 C107.564,79.027 108.286,78.865 109.028,78.845 C109.77,78.831 110.502,78.944 111.198,79.204 C111.919,79.473 112.57,79.879 113.133,80.41 C113.695,80.942 114.138,81.569 114.446,82.272 C114.745,82.955 114.907,83.677 114.928,84.419 C114.949,85.163 114.828,85.894 114.568,86.589" id="Fill-403" fill="#0073AA"></path>
                    <path d="M81.966,96.485 L80.479,96.284 C80.583,95.52 80.835,94.795 81.228,94.131 C81.62,93.468 82.134,92.898 82.753,92.439 C83.352,91.996 84.019,91.679 84.739,91.493 C85.463,91.31 86.201,91.266 86.935,91.363 L86.736,92.85 C86.194,92.776 85.647,92.809 85.112,92.946 C84.581,93.083 84.087,93.318 83.644,93.645 C83.188,93.982 82.81,94.403 82.52,94.895 C82.228,95.387 82.042,95.921 81.966,96.485" id="Fill-404" fill="#0073AA"></path>
                    <path d="M114.923,97.504 L113.436,97.303 C113.539,96.541 113.791,95.817 114.185,95.15 C114.579,94.484 115.092,93.915 115.71,93.457 C116.307,93.016 116.975,92.698 117.696,92.512 C118.42,92.326 119.158,92.284 119.893,92.382 L119.693,93.868 C119.151,93.794 118.603,93.826 118.069,93.965 C117.536,94.103 117.042,94.337 116.602,94.662 C116.146,95 115.768,95.421 115.477,95.913 C115.185,96.406 114.999,96.941 114.923,97.504" id="Fill-405" fill="#0073AA"></path>
                    <path d="M97.82,104.67 C97.09,104.43 96.424,104.05 95.841,103.542 C95.258,103.033 94.791,102.424 94.454,101.733 C94.128,101.065 93.938,100.35 93.888,99.607 C93.836,98.865 93.928,98.131 94.159,97.425 L95.585,97.892 C95.414,98.413 95.346,98.956 95.384,99.505 C95.421,100.055 95.561,100.582 95.802,101.075 C96.051,101.586 96.395,102.035 96.827,102.411 C97.258,102.787 97.75,103.067 98.289,103.244 L97.82,104.67" id="Fill-406" fill="#0073AA" transform="translate(96.081444, 101.047500) rotate(-7.000000) translate(-96.081444, -101.047500) "></path>
                    <path d="M36.273,88.978 C34.838,87.541 34.048,85.633 34.048,83.604 C34.048,79.412 37.457,76.003 41.648,76.003 C43.405,76.003 45.119,76.617 46.475,77.731 L45.521,78.89 C44.435,77.995 43.059,77.503 41.648,77.503 C38.284,77.503 35.548,80.239 35.548,83.604 C35.548,85.232 36.183,86.765 37.334,87.917 L36.273,88.978" id="Fill-407" fill="#0073AA"></path>
                    <path d="M130.726,93.384 L130.065,92.036 C133.054,90.573 135.119,87.34 135.457,83.597 C135.655,81.409 134.9,79.259 133.331,77.541 C131.048,75.044 127.321,73.874 124.019,74.673 L123.668,73.214 C127.486,72.293 131.796,73.638 134.438,76.529 C136.295,78.563 137.188,81.12 136.951,83.731 C136.56,88.058 134.233,91.666 130.726,93.384" id="Fill-408" fill="#0073AA"></path>
                    <path d="M123.828,104.415 L123.828,102.915 C128.517,102.915 132.26,99.145 132.728,93.949 C132.815,92.994 132.716,92.046 132.433,91.133 L133.864,90.688 C134.207,91.79 134.327,92.933 134.223,94.085 C133.683,100.07 129.31,104.415 123.828,104.415" id="Fill-409" fill="#0073AA"></path>
                    <path d="M43.833,81.368 L17.011,81.368 C16.226,81.368 15.59,82.004 15.59,82.788 L15.59,103.676 L42.442,103.676 C44.033,103.676 45.323,102.386 45.323,100.794 L45.323,82.858 C45.323,82.035 44.656,81.368 43.833,81.368" id="Fill-410" fill="#62A6CF"></path>
                    <path d="M42.988,104.426 L14.841,104.426 L14.841,82.519 C14.841,81.471 15.693,80.618 16.741,80.618 L34.269,80.618 L34.269,82.118 L16.741,82.118 C16.52,82.118 16.341,82.298 16.341,82.519 L16.341,102.926 L42.988,102.926 C43.862,102.926 44.573,102.215 44.573,101.341 L44.573,82.576 C44.573,82.323 44.368,82.118 44.115,82.118 L42.284,82.118 L42.284,80.618 L44.115,80.618 C45.195,80.618 46.073,81.496 46.073,82.576 L46.073,101.341 C46.073,103.042 44.689,104.426 42.988,104.426" id="Fill-411" fill="#0073AA"></path>
                    <path d="M34.673,73.02 L40.596,78.943 L40.596,99.62 C40.596,100.556 39.837,101.315 38.902,101.315 L21.218,101.315 C20.283,101.315 19.524,100.556 19.524,99.62 L19.524,74.714 C19.524,73.778 20.283,73.02 21.218,73.02 L34.673,73.02" id="Fill-412" fill="#FFFFFF"></path>
                    <polyline id="Fill-413" fill="#62A6CF" points="34.673 78.943 34.673 73.02 40.596 78.943 34.673 78.943"></polyline>
                    <path d="M40.596,79.692 L35.265,79.692 C34.524,79.692 33.923,79.091 33.923,78.351 L33.923,73.02 L35.423,73.02 L35.423,78.192 L40.596,78.192 L40.596,79.692" id="Fill-414" fill="#0073AA"></path>
                    <path d="M38.901,102.065 L21.219,102.065 L21.219,100.565 L38.901,100.565 C39.422,100.565 39.846,100.141 39.846,99.62 L39.846,79.253 L34.362,73.77 L21.219,73.77 C20.697,73.77 20.273,74.193 20.273,74.714 L20.273,82.695 L18.773,82.695 L18.773,74.714 C18.773,73.366 19.87,72.27 21.219,72.27 L34.983,72.27 L41.346,78.632 L41.346,99.62 C41.346,100.968 40.249,102.065 38.901,102.065" id="Fill-415" fill="#0073AA"></path>
                    <path d="M38.123,71.295 L44.046,77.218 L44.046,97.895 C44.046,98.831 43.287,99.59 42.351,99.59 L24.668,99.59 C23.732,99.59 22.974,98.831 22.974,97.895 L22.974,72.989 C22.974,72.053 23.732,71.295 24.668,71.295 L38.123,71.295" id="Fill-416" fill="#ADDDF8"></path>
                    <polyline id="Fill-417" fill="#62A6CF" points="38.123 77.218 38.123 71.295 44.046 77.218 38.123 77.218"></polyline>
                    <path d="M44.046,77.968 L38.715,77.968 C37.975,77.968 37.373,77.366 37.373,76.626 L37.373,71.295 L38.873,71.295 L38.873,76.468 L44.046,76.468 L44.046,77.968" id="Fill-418" fill="#0073AA"></path>
                    <polygon id="Fill-419" fill="#0073AA" points="26.133 80.857 41.201 80.857 41.201 79.357 26.133 79.357"></polygon>
                    <polygon id="Fill-420" fill="#0073AA" points="26.133 84.218 41.201 84.218 41.201 82.718 26.133 82.718"></polygon>
                    <polygon id="Fill-421" fill="#0073AA" points="26.133 87.577 41.201 87.577 41.201 86.077 26.133 86.077"></polygon>
                    <polygon id="Fill-422" fill="#0073AA" points="26.133 90.938 41.201 90.938 41.201 89.438 26.133 89.438"></polygon>
                    <path d="M42.352,100.34 L41.572,100.34 L41.572,98.84 L42.352,98.84 C42.872,98.84 43.296,98.416 43.296,97.896 L43.296,77.528 L37.813,72.045 L24.668,72.045 C24.147,72.045 23.724,72.469 23.724,72.989 L23.724,84.941 L22.224,84.941 L22.224,72.989 C22.224,71.642 23.32,70.545 24.668,70.545 L38.434,70.545 L44.796,76.907 L44.796,97.896 C44.796,99.243 43.699,100.34 42.352,100.34" id="Fill-423" fill="#0073AA"></path>
                    <path d="M41.572,73.882 L47.496,79.805 L47.496,100.483 C47.496,101.418 46.737,102.177 45.801,102.177 L28.118,102.177 C27.182,102.177 26.423,101.418 26.423,100.483 L26.423,75.577 C26.423,74.641 27.182,73.882 28.118,73.882 L41.572,73.882" id="Fill-424" fill="#FFFFFF"></path>
                    <polyline id="Fill-425" fill="#E7F7FF" points="41.572 79.805 41.572 73.882 47.496 79.805 41.572 79.805"></polyline>
                    <path d="M47.495,80.556 L42.164,80.556 C41.424,80.556 40.822,79.953 40.822,79.213 L40.822,73.882 L42.322,73.882 L42.322,79.056 L47.495,79.056 L47.495,80.556" id="Fill-426" fill="#0073AA"></path>
                    <polygon id="Fill-427" fill="#0073AA" points="29.582 83.445 44.651 83.445 44.651 81.945 29.582 81.945"></polygon>
                    <polygon id="Fill-428" fill="#0073AA" points="29.582 86.805 44.651 86.805 44.651 85.305 29.582 85.305"></polygon>
                    <polygon id="Fill-429" fill="#0073AA" points="29.582 90.165 44.651 90.165 44.651 88.665 29.582 88.665"></polygon>
                    <polygon id="Fill-430" fill="#0073AA" points="29.582 93.525 44.651 93.525 44.651 92.025 29.582 92.025"></polygon>
                    <path d="M45.801,102.927 L42.779,102.927 L42.779,101.427 L45.801,101.427 C46.321,101.427 46.745,101.003 46.745,100.482 L46.745,80.116 L41.262,74.632 L28.118,74.632 C27.598,74.632 27.174,75.056 27.174,75.576 L27.174,84.942 L25.674,84.942 L25.674,75.576 C25.674,74.229 26.77,73.132 28.118,73.132 L41.883,73.132 L48.245,79.495 L48.245,100.482 C48.245,101.83 47.148,102.927 45.801,102.927" id="Fill-431" fill="#0073AA"></path>
                    <path d="M42.943,103.676 L14.569,103.676 C13.889,103.676 13.337,103.124 13.337,102.444 L13.337,84.829 C13.337,84.26 13.798,83.8 14.366,83.8 L19.216,83.8 C19.569,83.8 19.898,83.982 20.086,84.281 L21.338,86.27 L39.383,86.27 C40.034,86.27 40.562,86.798 40.562,87.449 L40.562,101.296 C40.562,102.407 41.358,103.676 42.943,103.676" id="Fill-432" fill="#FFFFFF"></path>
                    <path d="M40.562,97.998 L13.337,97.998 L13.337,102.081085 C13.337,102.961395 13.889,103.676 14.57,103.676 L42.943,103.676 C41.358,103.676 40.562,102.033186 40.562,100.59362 L40.562,97.998 Z" id="Fill-433" fill="#E7F7FF"></path>
                    <path d="M42.942,104.426 C40.909,104.426 39.813,102.814 39.813,101.296 L39.813,87.449 C39.813,87.212 39.62,87.02 39.384,87.02 L20.924,87.02 L19.452,84.68 C19.401,84.6 19.311,84.55 19.216,84.55 L14.366,84.55 C14.212,84.55 14.087,84.675 14.087,84.829 L14.087,103.571 L12.587,103.571 L12.587,84.829 C12.587,83.848 13.385,83.05 14.366,83.05 L19.216,83.05 C19.83,83.05 20.394,83.36 20.722,83.88 L21.752,85.52 L39.384,85.52 C40.447,85.52 41.313,86.385 41.313,87.449 L41.313,101.296 C41.313,101.951 41.746,102.926 42.942,102.926 L42.942,104.426" id="Fill-434" fill="#0073AA"></path>
                    <polygon id="Fill-435" fill="#0073AA" points="5.332 104.426 164.92275 104.426 164.92275 102.926 5.332 102.926"></polygon>
                    <polygon id="Fill-436" fill="#0073AA" points="0.77 104.426 3.509 104.426 3.509 102.926 0.77 102.926"></polygon>
                </g>
            </g>
        </g>
    </svg>
